<?xml version="1.0" standalone="no"?>
<!DOCTYPE svg PUBLIC "-//W3C//DTD SVG 20010904//EN"
 "http://www.w3.org/TR/2001/REC-SVG-20010904/DTD/svg10.dtd">
<svg version="1.0" xmlns="http://www.w3.org/2000/svg"
 width="512.000000pt" height="512.000000pt" viewBox="0 0 512.000000 512.000000"
 preserveAspectRatio="xMidYMid meet">

<g transform="translate(0.000000,512.000000) scale(0.100000,-0.100000)"
fill="#000000" stroke="none">
<path d="M2330 5109 c-204 -19 -464 -77 -646 -144 -128 -47 -375 -168 -487
-239 -289 -182 -575 -460 -765 -744 -259 -385 -405 -829 -428 -1304 -8 -159 3
-206 62 -257 l34 -30 0 -151 0 -151 -34 -35 c-37 -39 -66 -108 -66 -160 0 -39
66 -260 154 -519 114 -335 220 -602 372 -931 128 -278 158 -336 200 -377 87
-85 222 -89 314 -9 60 50 84 104 84 182 1 62 -4 75 -101 275 -204 425 -369
846 -513 1315 -27 90 -61 180 -75 200 -28 40 -79 78 -121 89 l-29 7 -3 133 -3
132 32 26 c47 40 69 96 69 179 0 188 45 448 111 647 48 146 164 387 246 512
289 438 720 755 1223 900 215 62 347 79 600 79 253 0 385 -17 600 -79 710
-205 1271 -756 1484 -1459 57 -185 96 -431 96 -605 0 -78 23 -135 69 -173 l31
-27 0 -128 0 -128 -60 -28 c-77 -36 -108 -78 -144 -194 -168 -546 -324 -950
-538 -1396 -97 -202 -102 -215 -102 -277 0 -206 235 -313 389 -178 52 46 88
112 233 433 154 341 268 635 380 975 84 256 122 387 122 425 0 51 -29 121 -66
159 l-34 35 0 151 0 151 34 30 c58 51 70 98 62 252 -13 257 -68 538 -152 766
-89 242 -254 533 -419 736 -98 120 -318 334 -435 421 -266 200 -582 355 -884
435 -291 77 -614 105 -896 78z"/>
<path d="M955 2359 c-149 -34 -295 -104 -330 -158 -44 -68 -51 -112 -30 -199
24 -103 155 -492 245 -727 144 -376 358 -854 412 -920 35 -42 117 -85 163 -85
76 0 237 63 343 134 56 37 76 57 96 98 48 96 48 97 -163 627 -104 262 -231
584 -281 716 -150 393 -161 418 -194 454 -60 65 -150 85 -261 60z"/>
<path d="M3980 2354 c-45 -19 -87 -59 -110 -104 -10 -19 -70 -172 -135 -340
-64 -168 -202 -519 -306 -781 -211 -530 -211 -531 -163 -627 21 -43 39 -61
102 -102 81 -53 202 -105 288 -123 67 -14 129 3 184 51 32 27 57 67 110 176
192 399 417 969 534 1351 55 182 62 221 46 271 -25 81 -54 111 -152 158 -158
76 -319 104 -398 70z"/>
</g>
</svg>
