<svg xmlns:xlink="http://www.w3.org/1999/xlink" version="1.1" xmlns="http://www.w3.org/2000/svg" id="SvgjsSvg1001" viewBox="0 118.65599999999999 287.424 51.839999999999996" style="max-height: 500px" width="287.424" height="51.839999999999996"><defs id="SvgjsDefs1002"/><g id="SvgjsG1008"><svg height="288" width="288" viewBox="0 0 2431 432" xmlns="http://www.w3.org/2000/svg"><path class="svgShape color1d55a4-0 selectable" transform="translate(1808)" d="M0 0 C13.86 0 27.72 0 42 0 C43.25977234 8.18852022 44.39601678 16.16572527 45.05322266 24.38989258 C45.14129684 25.44517654 45.22937103 26.50046051 45.32011414 27.58772278 C45.60575504 31.0229836 45.88497219 34.4587326 46.1640625 37.89453125 C46.36258673 40.29737089 46.56151702 42.70017702 46.76083374 45.10295105 C47.28106109 51.3874184 47.79581638 57.67232207 48.30938721 63.95733643 C48.8357309 70.38654676 49.36731234 76.81532384 49.8984375 83.24414062 C50.93738387 95.82901107 51.97072126 108.41433537 53 121 C53.78391113 120.21536377 54.56782227 119.43072754 55.37548828 118.62231445 C56.9088168 117.09026965 58.44591787 115.56195127 59.9921875 114.04296875 C63.84192775 110.24913759 67.49543328 106.36228809 71.01953125 102.265625 C73.46605727 99.46683784 75.98074944 96.73308502 78.5 94 C81.5194289 90.72160363 84.5220256 87.43418556 87.4375 84.0625 C91.06212089 79.87890143 94.83385067 75.8356539 98.59741211 71.77758789 C101.27401038 68.88635872 103.92311179 65.98110596 106.5 63 C110.10082614 58.83433839 113.85390974 54.81399952 117.59765625 50.77734375 C120.27415929 47.88618383 122.92318724 44.98101868 125.5 42 C129.05885254 37.88561926 132.75971408 33.90741962 136.45703125 29.91796875 C139.49756291 26.63480115 142.5142018 23.33323654 145.5 20 C150.94497843 13.95002397 156.47919995 7.98086672 162 2 C142.2 1.505 142.2 1.505 122 1 C122 0.67 122 0.34 122 0 C128.41659917 -0.41039805 134.82976332 -0.68767428 141.2565918 -0.87890625 C143.43495997 -0.95869878 145.61248959 -1.06739771 147.7878418 -1.20703125 C166.81823094 -2.39670393 166.81823094 -2.39670393 173.62841797 3.38671875 C176.89990028 6.66325715 179.70028388 10.21111128 182.42160034 13.94995117 C184.97850184 17.27089267 187.97180808 20.11419665 191 23 C194.21370065 26.13612469 197.29579531 29.30691478 200.21875 32.71875 C204.71117334 37.91218885 209.61257725 42.68170628 214.5 47.5 C224.66173415 57.51800382 224.66173415 57.51800382 228.40625 61.90625 C233.27010648 67.58553461 238.68260846 72.75065552 244 78 C255.71991784 89.56993718 255.71991784 89.56993718 259.46875 93.96875 C264.45421597 99.81128154 270.03963097 105.10647314 275.5 110.5 C288.50931456 123.35006326 288.50931456 123.35006326 293.67016602 129.4453125 C295.34505979 131.40340384 297.1418711 133.21619625 299 135 C302.78301227 133.43056316 305.17256547 131.06898723 308.04394531 128.18310547 C308.53220795 127.69513489 309.02047058 127.20716431 309.52352905 126.70440674 C311.12984962 125.09669725 312.72897713 123.48202899 314.328125 121.8671875 C315.44298317 120.74859765 316.55828487 119.63044971 317.67401123 118.51272583 C320.60470609 115.57440675 323.52934422 112.63013045 326.45275879 109.68457031 C329.43882725 106.67801738 332.43058859 103.67714118 335.421875 100.67578125 C341.28683456 94.78939314 347.14540732 88.896699 353 83 C356.09181156 84.47800649 358.22136464 85.97443372 360.64453125 88.4140625 C361.32193359 89.09339844 361.99933594 89.77273437 362.69726562 90.47265625 C363.39529297 91.18292969 364.09332031 91.89320312 364.8125 92.625 C365.49892578 93.31207031 366.18535156 93.99914062 366.89257812 94.70703125 C370.89552487 98.74406174 374.70249445 102.89774588 378.41674805 107.20068359 C380.50787099 109.57717952 382.73257057 111.79223977 385 114 C388.56400302 117.52106323 391.90304168 121.13186008 395.15625 124.9375 C397.34796313 127.38924689 399.66067104 129.68885573 402 132 C405.56400302 135.52106323 408.90304168 139.13186008 412.15625 142.9375 C414.34796313 145.38924689 416.66067104 147.68885573 419 150 C422.56400302 153.52106323 425.90304168 157.13186008 429.15625 160.9375 C432.15350228 164.29035849 435.39159634 167.39893756 438.58984375 170.55859375 C441.26854532 173.27202727 443.74608118 176.10777023 446.22265625 179.00390625 C448.23268777 181.26132626 450.34832953 183.37735713 452.5 185.5 C455.26560408 188.22829407 457.91287031 190.98516834 460.4375 193.9375 C463.15619248 197.1103592 466.02751675 200.06338382 469 203 C472.58558699 206.54232199 475.94891662 210.17555661 479.22265625 214.00390625 C481.94855159 217.0652964 484.89141358 219.89965164 487.80859375 222.77734375 C490.42101068 225.4270144 492.83302621 228.21172803 495.25390625 231.03515625 C497.09615675 233.10820324 499.02401662 235.05435802 501 237 C503.59982183 239.55990134 506.06268398 242.1677954 508.4375 244.9375 C511.71010493 248.74684196 515.23100437 252.24821109 518.8046875 255.7734375 C521.44006743 258.44633174 523.87766489 261.25368303 526.3203125 264.1015625 C528.5228722 266.59096719 530.88352636 268.8945103 533.25390625 271.22265625 C535.06477643 273.06593574 536.75321354 274.97822799 538.4375 276.9375 C540.85617779 279.74576347 543.35899683 282.39970593 546 285 C549.27202128 288.2215855 552.29316055 291.58592145 555.28515625 295.06640625 C557.5004738 297.56431556 559.8689817 299.88024989 562.25 302.21875 C564.70634849 304.71896185 566.96309368 307.37680516 569.25 310.03125 C571.45010172 312.50636444 573.79414514 314.80745727 576.15698242 317.12573242 C577.93117629 318.93000933 579.58932662 320.78829691 581.23828125 322.70703125 C584.94716335 326.97249064 588.79739233 331.08763162 592.6875 335.1875 C597.64768319 340.43756402 602.59929017 345.69431268 607.5 351 C608.3765625 351.94875 609.253125 352.8975 610.15625 353.875 C613.80561386 357.88528996 617.3976846 361.94739517 621 366 C621.33 327.39 621.66 288.78 622 249 C622.33 249 622.66 249 623 249 C623.02332946 264.49839856 623.04097941 279.99679582 623.05181217 295.49520779 C623.05697503 302.69090295 623.06401753 309.88658722 623.07543945 317.08227539 C623.0853866 323.35184694 623.0918535 329.62141061 623.09408849 335.89098984 C623.09539555 339.21265621 623.09899997 342.53429466 623.10573006 345.85595512 C623.11293628 349.55819947 623.11399112 353.26039631 623.11352539 356.96264648 C623.11712067 358.07178909 623.12071594 359.1809317 623.12442017 360.32368469 C623.1230455 361.32634369 623.12167084 362.32900269 623.12025452 363.36204529 C623.12117631 364.23867042 623.1220981 365.11529554 623.12304783 366.01848507 C623 368 623 368 622 369 C620.23486782 369.1290998 618.46461444 369.18855632 616.69506836 369.22119141 C615.54348236 369.24419312 614.39189636 369.26719482 613.20541382 369.29089355 C611.9297757 369.31091431 610.65413757 369.33093506 609.33984375 369.3515625 C607.99060606 369.37625032 606.64137314 369.40119957 605.29214478 369.4263916 C597.74906256 369.56102652 590.20588857 369.64718405 582.66186523 369.70654297 C581.8798515 369.71279757 581.09783777 369.71905216 580.29212666 369.72549629 C577.05899523 369.75098883 573.82586999 369.77621109 570.59270668 369.79733658 C560.51323542 369.86498742 550.4514696 370.05434712 540.37913799 370.4453373 C533.81204246 370.69744717 527.24630001 370.86372496 520.67524433 370.97012901 C516.74265316 371.03809318 512.82270588 371.15042945 508.89547729 371.37091064 C489.10681086 372.44828885 489.10681086 372.44828885 481 369 C474.50093193 363.15411142 471.39704173 355.29326008 468.35177612 347.27642822 C466.11890757 341.86441256 463.05196165 336.98058671 460 332 C454.61528323 322.85863925 449.40902994 313.62560067 444.25 304.35546875 C440.25035548 297.18646305 436.15651956 290.07907237 432 283 C426.62720551 273.84945939 421.4072756 264.62331625 416.24780273 255.35107422 C412.27184323 248.22371657 408.19833408 241.16062501 404.0625 234.125 C399.02162748 225.54580227 394.12582184 216.89636218 389.3125 208.1875 C379.21523055 189.92171093 368.64502656 171.9508871 358 154 C354.78780732 157.02410922 352.89264722 160.52732884 350.8125 164.375 C349.91808105 166.00787402 349.02354118 167.6406818 348.12890625 169.2734375 C347.63406738 170.18061523 347.13922852 171.08779297 346.62939453 172.02246094 C344.85601131 175.26312348 343.06801433 178.49542124 341.27734375 181.7265625 C334.71554493 193.57076075 328.20562409 205.43859038 321.8125 217.375 C317.30788558 225.77418229 312.73937514 234.13287004 308.0625 242.4375 C307.55501221 243.34226074 307.04752441 244.24702148 306.5246582 245.17919922 C302.89246758 251.59104859 299.00599547 257.81552654 295 264 C291.53945291 262.8464843 291.27471102 262.29496884 289.4609375 259.29296875 C288.72762207 258.09401978 288.72762207 258.09401978 287.97949219 256.87084961 C287.18526855 255.54259155 287.18526855 255.54259155 286.375 254.1875 C285.80942383 253.25752197 285.24384766 252.32754395 284.66113281 251.36938477 C283.42297352 249.33123292 282.188784 247.29066563 280.95800781 245.24804688 C278.96771521 241.94644428 276.96590422 238.65208457 274.9609375 235.359375 C272.10544829 230.66852293 269.25542899 225.97439959 266.41015625 221.27734375 C263.46351351 216.41300106 260.5130867 211.55098498 257.55859375 206.69140625 C250.87132709 195.69077566 244.19722071 184.68296453 237.58544922 173.63671875 C231.17501053 162.93753021 224.68437448 152.28676903 218.20556641 141.62890625 C214.98712926 136.33408666 211.77197572 131.03727374 208.55664062 125.74057007 C207.1454354 123.41593715 205.73404664 121.09141568 204.32266235 118.76689148 C201.82375236 114.65121942 199.3249535 110.53548001 196.82666016 106.41943359 C196.46664413 105.82629364 196.10662811 105.23315369 195.73570251 104.62203979 C195.00891047 103.42457238 194.28215463 102.227083 193.55543518 101.02957153 C191.76900844 98.08605514 189.98175688 95.14304612 188.19262695 92.20117188 C184.76659752 86.5664773 181.35172022 80.92552911 177.9609375 75.26953125 C177.00513794 73.68168823 177.00513794 73.68168823 176.0300293 72.06176758 C174.83667965 70.07875473 173.64774836 68.0930735 172.46411133 66.10424805 C171.93325928 65.22422119 171.40240723 64.34419434 170.85546875 63.4375 C170.39809326 62.67308594 169.94071777 61.90867188 169.46948242 61.12109375 C167.86132286 58.79982938 166.04819437 56.93701373 164 55 C157.11075227 67.13585091 150.26528705 79.29455805 143.5 91.5 C138.84638729 99.89448382 134.1665415 108.27277402 129.4375 116.625 C128.92171387 117.53934814 128.40592773 118.45369629 127.87451172 119.39575195 C125.28912427 123.97573011 122.68896658 128.54601869 120.05403137 133.09771729 C118.40253868 135.9561074 116.76567115 138.82288858 115.125 141.6875 C114.49907959 142.75758301 113.87315918 143.82766602 113.22827148 144.93017578 C112.66052002 145.92645996 112.09276855 146.92274414 111.5078125 147.94921875 C110.99879395 148.82924561 110.48977539 149.70927246 109.96533203 150.6159668 C108.87242848 153.31505714 108.89666405 154.34713673 110 157 C111.37488767 158.70022227 111.37488767 158.70022227 113.125 160.25 C115.60747578 162.56087607 117.85375303 164.97189979 120.0546875 167.546875 C124.75853522 172.9702525 129.8914451 177.96334836 135 183 C145.65729406 193.50729193 145.65729406 193.50729193 149.40625 197.90625 C154.41836242 203.76564809 160.01815378 209.08525886 165.5 214.5 C177.7519613 226.60198101 177.7519613 226.60198101 181.46875 230.96875 C186.60334149 236.99358813 192.37402 242.44002312 198 248 C210.78326304 260.63329179 210.78326304 260.63329179 216.0859375 266.86328125 C220.81006553 272.13695071 225.96579848 277.02485895 231 282 C243.78326304 294.63329179 243.78326304 294.63329179 249.0859375 300.86328125 C253.81006553 306.13695071 258.96579848 311.02485895 264 316 C276.9296898 328.77800071 276.9296898 328.77800071 282.2421875 335.01953125 C286.11348287 339.3811907 290.34871189 343.40742884 294.5 347.5 C311.38061798 364.14185393 311.38061798 364.14185393 313 369 C294.73703938 369.23374222 276.4744676 369.41001034 258.21033382 369.51812172 C249.72963865 369.56965748 241.24987352 369.63989806 232.76977539 369.75439453 C225.37726595 369.85415891 217.98543006 369.91860283 210.59226614 369.94088495 C206.67824091 369.95390848 202.76614224 369.98444174 198.85273552 370.05730057 C195.16589518 370.12538261 191.48176655 370.14607986 187.7943573 370.13107681 C185.80221373 370.13512354 183.81036334 370.1888423 181.81898499 370.24420166 C173.21921143 370.14535868 173.21921143 370.14535868 169.66769791 366.80897522 C167.86965181 364.27590123 166.39798448 361.77008712 165 359 C164.35144043 357.95295898 163.70288086 356.90591797 163.03466797 355.82714844 C162.52564941 354.9302832 162.01663086 354.03341797 161.4921875 353.109375 C160.90518066 352.08223389 160.31817383 351.05509277 159.71337891 349.99682617 C159.10671387 348.92537354 158.50004883 347.8539209 157.875 346.75 C156.54781661 344.4278392 155.21976312 342.10619662 153.890625 339.78515625 C153.55999054 339.20675491 153.22935608 338.62835358 152.88870239 338.03242493 C149.84982011 332.7214421 146.74797336 327.44934126 143.625 322.1875 C138.64295532 313.78463634 133.68763298 305.36650851 128.75 296.9375 C128.39346344 296.32890137 128.03692688 295.72030273 127.66958618 295.09326172 C126.21417963 292.60883486 124.75885651 290.12435918 123.3037262 287.63977051 C120.74706906 283.27452319 118.18851418 278.91039266 115.62890625 274.546875 C114.19006126 272.09377516 112.75126465 269.64064696 111.3125 267.1875 C110.96006226 266.58660553 110.60762451 265.98571106 110.24450684 265.36660767 C104.73684443 255.97512205 99.24897673 246.57222056 93.77612305 237.16040039 C90.08537238 230.82447596 86.34602378 224.5204102 82.48632812 218.28564453 C80 214.21590531 80 214.21590531 80 212 C79.34 212 78.68 212 78 212 C77.77570313 212.63550781 77.55140625 213.27101562 77.3203125 213.92578125 C76.20890971 216.51357415 75.00165937 218.84875812 73.6171875 221.29296875 C73.17246094 222.08896484 72.72773437 222.88496094 72.26953125 223.70507812 C71.34627487 225.34857792 70.40890133 226.98423339 69.45703125 228.61132812 C69.01488281 229.41376953 68.57273437 230.21621094 68.1171875 231.04296875 C67.71097168 231.75477295 67.30475586 232.46657715 66.88623047 233.19995117 C64.57387986 240.50583249 66.14746057 249.16029657 66.81030273 256.68774414 C66.89647858 257.70552948 66.98265442 258.72331482 67.07144165 259.77194214 C67.3549737 263.11002134 67.64433721 266.44756868 67.93359375 269.78515625 C68.13341084 272.12906795 68.33278998 274.47301703 68.53175354 276.81700134 C69.0555384 282.97726695 69.58396303 289.13712467 70.11376953 295.296875 C70.95899516 305.12851915 71.79876214 314.96062624 72.6354847 324.79299736 C72.92641423 328.20105268 73.22030336 331.60884316 73.51451111 335.01661682 C74.51370162 346.67111681 75.40108875 358.31769663 76 370 C59.8496323 369.89289612 43.69931537 369.78015939 27.54903507 369.66066074 C20.05069115 369.60531151 12.55234247 369.55182679 5.05395508 369.50268555 C-1.47933488 369.45986447 -8.01258955 369.41359182 -14.54582506 369.36312145 C-18.00719733 369.3365037 -21.46856252 369.31165031 -24.92997551 369.29092598 C-28.78791852 369.26776301 -32.64577829 369.23689622 -36.50366211 369.20532227 C-38.23750656 369.19668907 -38.23750656 369.19668907 -40.00637817 369.18788147 C-41.05110794 369.17809265 -42.09583771 369.16830383 -43.17222595 369.15821838 C-44.0857228 369.15176583 -44.99921965 369.14531328 -45.94039822 369.1386652 C-48 369 -48 369 -49 368 C-48.84125448 357.38370586 -46.97572312 346.72352163 -45.52587891 336.22485352 C-45.27016444 334.35224267 -45.0147925 332.47958502 -44.75973225 330.60688496 C-44.20944572 326.57201635 -43.65677103 322.53748477 -43.10221672 318.50320053 C-42.20891799 312.00445234 -41.32100869 305.5049742 -40.43373108 299.00540161 C-39.16196432 289.69319318 -37.88778198 280.38131818 -36.61190796 271.06967163 C-33.4595733 248.06162043 -30.32022749 225.05179451 -27.18076587 202.04198384 C-26.68258183 198.39102158 -26.18425625 194.74007866 -25.68589973 191.08913994 C-19.72155646 147.39141691 -13.82554805 103.68483097 -7.99202633 59.96946096 C-7.68609016 57.67693537 -7.38007769 55.38441998 -7.07404327 53.0919075 C-4.71171301 35.3951788 -2.3534856 17.69790741 0 0 Z" fill="#1D55A4"/><path class="svgShape color595959-1 selectable" transform="translate(0 59)" d="M0 0 C8.74475492 -0.23217981 17.48844232 -0.40961373 26.23561192 -0.51812172 C30.29791524 -0.57021505 34.3581036 -0.64079916 38.41918945 -0.75439453 C42.34216329 -0.86343401 46.26311019 -0.92291528 50.18748283 -0.94877243 C51.68083554 -0.96718494 53.17408277 -1.00314705 54.66656685 -1.05730057 C66.338786 -1.46379031 66.338786 -1.46379031 70.40611267 2.12016296 C72.2174309 4.67514932 73.61924596 7.19335064 75 10 C76.04354854 11.64802783 77.10256058 13.28647015 78.18359375 14.91015625 C79.27041758 16.62622014 80.3549626 18.34372889 81.4375 20.0625 C82.66763397 22.00542033 83.89811629 23.94812015 85.12890625 25.890625 C85.76328613 26.89287109 86.39766602 27.89511719 87.05126953 28.92773438 C90.31038522 34.06588418 93.59271591 39.18913063 96.875 44.3125 C98.21618158 46.4062271 99.55732712 48.49997729 100.8984375 50.59375 C101.5697168 51.64175781 102.24099609 52.68976563 102.93261719 53.76953125 C105.05396546 57.08432581 107.17191234 60.40127276 109.2890625 63.71875 C109.99434082 64.82307373 110.69961914 65.92739746 111.42626953 67.06518555 C112.75890342 69.15199546 114.09068159 71.23935222 115.42138672 73.32739258 C117.27215268 76.22404295 119.13231332 79.11423153 121 82 C121.35336426 82.54670349 121.70672852 83.09340698 122.07080078 83.65667725 C123.15624602 85.33071152 124.24992724 86.99939633 125.34375 88.66796875 C125.99537109 89.66465576 126.64699219 90.66134277 127.31835938 91.68823242 C128.7930786 94.08830096 128.7930786 94.08830096 131 95 C131.26393555 94.29020996 131.52787109 93.58041992 131.79980469 92.84912109 C133.05792182 89.86250047 134.54543591 87.19825008 136.203125 84.4140625 C137.16798828 82.7887561 137.16798828 82.7887561 138.15234375 81.13061523 C138.85137681 79.96196573 139.55060043 78.79343019 140.25 77.625 C140.97542395 76.40773091 141.70068212 75.190363 142.42578125 73.97290039 C153.7902797 54.9156919 165.42048836 36.01997487 177.06933594 17.13574219 C178.45621504 14.8832036 179.83971968 12.62880856 181.21972656 10.37207031 C181.76942612 9.47459579 181.76942612 9.47459579 182.33023071 8.55899048 C183.3612248 6.87534796 184.39085446 5.19087015 185.42041016 3.50634766 C187 1 187 1 188 0 C189.9943173 -0.09405142 191.99199543 -0.11743249 193.98852539 -0.11352539 C195.26977798 -0.11344986 196.55103058 -0.11337433 197.87110901 -0.11329651 C199.27995848 -0.10818909 200.68880756 -0.10297309 202.09765625 -0.09765625 C203.53112234 -0.09579202 204.96458907 -0.09436814 206.39805603 -0.09336853 C210.17759957 -0.08954372 213.9571049 -0.07971377 217.7366333 -0.06866455 C221.59069298 -0.05844963 225.44475882 -0.05387074 229.29882812 -0.04882812 C236.86590287 -0.03809146 244.43294609 -0.02101549 252 0 C252.33 0.66 252.66 1.32 253 2 C252.18652344 3.79321289 252.18652344 3.79321289 250.859375 5.97265625 C250.37146484 6.780979 249.88355469 7.58930176 249.38085938 8.42211914 C248.84267578 9.29344482 248.30449219 10.16477051 247.75 11.0625 C246.92725586 12.41299438 246.92725586 12.41299438 246.08789062 13.79077148 C241.76713202 20.84680895 237.30353322 27.80506766 232.77734375 34.73046875 C229.82679029 39.25004212 226.93994959 43.80863286 224.0625 48.375 C223.56363281 49.16656494 223.06476563 49.95812988 222.55078125 50.77368164 C221.53897658 52.37988895 220.52742125 53.98625335 219.51611328 55.59277344 C217.01473282 59.56436947 214.50707491 63.53199716 212 67.5 C210.99996938 69.08331399 209.99996939 70.66664733 209 72.25 C191 100.75 191 100.75 189.49682617 103.12841797 C188.50546623 104.69913571 187.51601843 106.27106206 186.52856445 107.84423828 C183.9114457 112.00793457 181.25644056 116.14051595 178.54296875 120.2421875 C177.98158203 121.10134766 177.42019531 121.96050781 176.84179688 122.84570312 C175.76269452 124.49557036 174.67202789 126.13794846 173.56835938 127.77148438 C173.08560547 128.51462891 172.60285156 129.25777344 172.10546875 130.0234375 C171.67387451 130.67231934 171.24228027 131.32120117 170.79760742 131.98974609 C169.69400896 134.77120607 170.06983055 136.16936149 171 139 C172.56498997 141.77970114 172.56498997 141.77970114 174.56640625 144.58203125 C175.29102051 145.63729004 176.01563477 146.69254883 176.76220703 147.77978516 C177.50067871 148.84245605 178.23915039 149.90512695 179 151 C180.30261889 152.91932702 181.60344351 154.83987319 182.90234375 156.76171875 C184.24683923 158.73735807 185.59191109 160.71260524 186.9375 162.6875 C188.05430935 164.3282446 189.17111778 165.96898982 190.28787231 167.60977173 C191.43507141 169.2951396 192.58250872 170.9803451 193.72998047 172.66552734 C197.32248378 177.94198662 200.9110133 183.22114847 204.5 188.5 C208.70219469 194.68032093 212.90475304 200.86039257 217.109375 207.0390625 C223.15074847 215.91809411 229.1890357 224.79915671 235.2109375 233.69140625 C235.65560867 234.34798721 236.10027985 235.00456818 236.5584259 235.68104553 C238.80549168 238.99933649 241.05168001 242.31821729 243.29663086 245.63793945 C247.39962423 251.70279906 251.51316706 257.75954838 255.66796875 263.7890625 C256.3729248 264.81427002 257.07788086 265.83947754 257.80419922 266.89575195 C259.11044074 268.79286689 260.42046444 270.68738507 261.73486328 272.57885742 C262.30317871 273.40490479 262.87149414 274.23095215 263.45703125 275.08203125 C263.95178955 275.79593018 264.44654785 276.5098291 264.95629883 277.24536133 C266 279 266 279 266 281 C257.12485464 281.23216414 248.25076075 281.40960636 239.37323666 281.51812172 C235.25041575 281.5702181 231.12967825 281.64080895 227.00805664 281.75439453 C223.02673116 281.86342137 219.04740262 281.92291299 215.06469917 281.94877243 C213.54902258 281.96718704 212.03345008 282.00315308 210.51862907 282.05730057 C198.70033869 282.46276916 198.70033869 282.46276916 194.64596558 278.97486877 C192.81918398 276.4004745 191.39751148 273.82711988 190 271 C189.15247467 269.69043009 188.2859275 268.39285144 187.39550781 267.11206055 C186.57984021 265.87129096 185.76574466 264.62948667 184.953125 263.38671875 C184.27959991 262.36077354 184.27959991 262.36077354 183.59246826 261.31410217 C182.14351112 259.10619342 180.69671893 256.89687583 179.25 254.6875 C178.22929292 253.13110209 177.20845769 251.57478822 176.1875 250.01855469 C173.61134289 246.09096343 171.03699014 242.16219317 168.46313477 238.23309326 C166.65703491 235.47655332 164.84974734 232.72079371 163.0422821 229.96514893 C154.58108058 217.06523502 146.13401651 204.15621028 137.71679688 191.22753906 C134.83456717 186.80231409 131.94109397 182.38634898 129 178 C126.17158968 181.38647196 123.8577358 184.77928279 121.70703125 188.62890625 C121.08513916 189.73266602 120.46324707 190.83642578 119.82250977 191.97363281 C119.49550079 192.55777954 119.16849182 193.14192627 118.83157349 193.74377441 C112.78146257 204.54131912 106.52763215 215.19618346 100.0625 225.75 C94.13204169 235.37327906 94.13204169 235.37327906 88.51579285 245.18112183 C87.53095068 246.95653302 86.5049303 248.70894162 85.47485352 250.45849609 C83.44758969 254.00355402 81.86124645 257.64374357 80.26196289 261.39941406 C72.05869245 279.03526302 72.05869245 279.03526302 63.44039917 282.38250732 C54.09509175 284.123339 44.73488224 283.5110201 35.30627441 282.78527832 C31.43449264 282.5162025 27.55817609 282.39994855 23.6796875 282.26953125 C16.10756846 281.99296061 8.55761973 281.55141308 1 281 C2.44726249 277.27435718 4.09853548 274.00142279 6.203125 270.59765625 C7.16847168 269.03156616 7.16847168 269.03156616 8.15332031 267.43383789 C9.19117676 265.76502563 9.19117676 265.76502563 10.25 264.0625 C10.97250041 262.89520592 11.69482891 261.72780542 12.41699219 260.56030273 C18.64751103 250.50401307 24.99366256 240.52214852 31.36816406 230.55664062 C33.967624 226.48399782 36.54716301 222.39885214 39.125 218.3125 C39.61258789 217.5397876 40.10017578 216.7670752 40.60253906 215.97094727 C41.57921321 214.422922 42.55577613 212.87482655 43.53222656 211.32666016 C45.51858477 208.17795861 47.50666714 205.03034757 49.49487305 201.8828125 C50.4990646 200.29304615 51.50313343 198.70320227 52.50708008 197.11328125 C54.96782116 193.21634259 57.42977398 189.32018115 59.89453125 185.42578125 C65.57728802 176.44382077 71.23625007 167.44715883 76.875 158.4375 C77.80276245 156.95697144 77.80276245 156.95697144 78.74926758 155.4465332 C82.5681893 149.3378077 86.31701755 143.19164382 90 137 C85.22463534 129.43177615 80.34638378 121.94074929 75.375 114.5 C75.01037659 113.953508 74.64575317 113.40701599 74.27008057 112.84396362 C64.93397526 98.8526619 55.51653278 84.91584492 46.10302734 70.9765625 C44.8993765 69.19403578 43.6957624 67.41148425 42.4921875 65.62890625 C41.90976791 64.76633209 41.32734833 63.90375793 40.72727966 63.01504517 C37.8052136 58.68474149 34.89362162 54.34808857 32.00390625 49.99609375 C28.49044555 44.71048458 24.91995276 39.46465735 21.34765625 34.21875 C19.53660005 31.55432696 17.7260812 28.88953966 15.91577148 26.22460938 C14.66963151 24.39258169 13.42155107 22.56187255 12.17163086 20.73242188 C10.34987688 18.06484508 8.53559404 15.3923235 6.72265625 12.71875 C6.16232193 11.90208862 5.60198761 11.08542725 5.02467346 10.24401855 C4.51001022 9.4822229 3.99534698 8.72042725 3.46508789 7.93554688 C2.78513512 6.93726868 2.78513512 6.93726868 2.09144592 5.91882324 C0.9694645 3.94631687 0.43728232 2.21721483 0 0 Z" fill="#000000"/><path class="svgShape color5a5a5a-2 selectable" transform="translate(423 130)" d="M0 0 C0.93585938 0.42023438 1.87171875 0.84046875 2.8359375 1.2734375 C22.08557106 10.81551946 35.29086989 30.00618419 42.27978516 49.81201172 C55.27197511 89.28184439 54.21522595 136.2229809 35.390625 173.60546875 C25.91512273 191.55114562 10.50295274 205.65491409 -8.89453125 211.9375 C-28.0856329 217.39816914 -47.12364553 216.20566169 -65.25 207.9375 C-72 204 -72 204 -84 193 C-84 228.97 -84 264.94 -84 302 C-102.15 302 -120.3 302 -139 302 C-139.66 201.35 -140.32 100.7 -141 -3 C-125.16 -3 -109.32 -3 -93 -3 C-91.68 3.6 -90.36 10.2 -89 17 C-88.505 17.99 -88.505 17.99 -88 19 C-87.56171875 18.45472656 -87.1234375 17.90945312 -86.671875 17.34765625 C-64.99418181 -8.42764967 -30.21033768 -13.69025429 0 0 Z M-75.7890625 51.94921875 C-90.83398069 70.81095115 -87.50415018 104.06580956 -85.48242188 126.77099609 C-83.89598478 140.70564629 -80.30171304 152.20842491 -69.25 161.3125 C-59.28580286 168.1261129 -48.75581936 169.30361561 -37 168 C-27.66619175 166.18761005 -21.15087181 161.19095358 -15.28515625 153.85546875 C-6.72277825 141.0663698 -4.92185388 124.98464442 -4 110 C-3.93941406 109.02933594 -3.87882812 108.05867188 -3.81640625 107.05859375 C-3.3278346 88.69404768 -5.80132892 68.58130303 -16 53 C-16.42796875 52.33355469 -16.8559375 51.66710937 -17.296875 50.98046875 C-21.94131879 44.71046963 -30.32898293 40.27383678 -38 39 C-53.36398428 38.02577646 -64.90895909 40.09513229 -75.7890625 51.94921875 Z" fill="#111111"/><path class="svgShape color595959-3 selectable" transform="translate(499 127)" d="M0 0 C17.49 0 34.98 0 53 0 C53.33 43.89 53.66 87.78 54 133 C58.29 125.08 62.58 117.16 67 109 C69.39512346 104.96746599 71.78041326 100.99976193 74.3125 97.0625 C74.92875244 96.08982178 75.54500488 95.11714355 76.17993164 94.11499023 C78.11162833 91.07125946 80.05482704 88.03513217 82 85 C83.31540683 82.93769302 84.6305088 80.87519155 85.9453125 78.8125 C89.27548511 73.59482147 92.61712376 68.38458587 95.96191406 63.17626953 C98.73215286 58.85897116 101.49454647 54.53667483 104.25732422 50.21459961 C110.69490981 40.14526135 117.15635632 30.09213794 123.66162109 20.06640625 C125.13855514 17.78607612 126.61060853 15.50264001 128.08203125 13.21875 C128.59080811 12.42984375 129.09958496 11.6409375 129.6237793 10.828125 C130.60405097 9.30789883 131.58342114 7.78709087 132.56176758 6.265625 C135.88770812 1.11229188 135.88770812 1.11229188 137 0 C155.48 0 173.96 0 193 0 C193 70.29 193 140.58 193 213 C175.18 213 157.36 213 139 213 C139 168.78 139 124.56 139 79 C134.71 86.92 130.42 94.84 126 103 C123.41624839 107.37762704 120.83170487 111.7045373 118.125 116 C117.45992432 117.06847168 116.79484863 118.13694336 116.10961914 119.23779297 C114.07955795 122.49596323 112.04021196 125.74817933 110 129 C108.72460265 131.04386053 107.4498504 133.08812376 106.17578125 135.1328125 C103.07650297 140.10327702 99.96912305 145.06861341 96.85888672 150.03222656 C93.73535593 155.01904562 90.61804407 160.00974928 87.5 165 C86.2604312 166.983082 85.02084784 168.9661549 83.78125 170.94921875 C81.17585103 175.11772112 78.57188959 179.28711761 75.96875 183.45703125 C75.30423828 184.52115234 74.63972656 185.58527344 73.95507812 186.68164062 C72.69818724 188.69442393 71.44164755 190.70742659 70.18554688 192.72070312 C67.17893644 197.53463916 64.16079268 202.34112466 61.125 207.13671875 C60.26261719 208.4992981 60.26261719 208.4992981 59.3828125 209.8894043 C58 212 58 212 57 213 C38.19 213 19.38 213 0 213 C0 142.71 0 72.42 0 0 Z" fill="#111111"/><path class="svgShape color595959-4 selectable" transform="translate(1297 127)" d="M0 0 C16.83 0 33.66 0 51 0 C51 43.89 51 87.78 51 133 C54.96 125.41 58.92 117.82 63 110 C65.35376258 105.89105074 67.70726361 101.83829077 70.1875 97.8125 C70.80568604 96.79534912 71.42387207 95.77819824 72.06079102 94.73022461 C73.36634616 92.58332258 74.67487155 90.43822405 75.98632812 88.29492188 C78.05775521 84.90549657 80.11673056 81.50868262 82.171875 78.109375 C89.70805334 65.65129193 97.30499086 53.23183448 104.94946289 40.83984375 C110.87819703 31.22066233 116.74359332 21.56360711 122.59375 11.89648438 C123.27179688 10.77693359 123.94984375 9.65738281 124.6484375 8.50390625 C125.24833496 7.51205322 125.84823242 6.5202002 126.46630859 5.49829102 C127.60612217 3.64160328 128.79150897 1.81273654 130 0 C147.16 0 164.32 0 182 0 C182 70.29 182 140.58 182 213 C165.17 213 148.34 213 131 213 C131 169.11 131 125.22 131 80 C123.575 93.86 123.575 93.86 116 108 C112.59446849 113.79664938 109.18742805 119.56239904 105.66650391 125.28515625 C103.44054511 128.91138857 101.2364712 132.55075456 99.03137207 136.18969727 C96.499274 140.36793631 93.96375205 144.54407564 91.42578125 148.71875 C87.46582839 155.23287898 83.5089119 161.74884629 79.55307007 168.26547241 C78.50605808 169.99002164 77.45876112 171.71439749 76.41137695 173.4387207 C73.07132096 178.9379262 69.7335027 184.43846158 66.40197754 189.94284058 C64.81745227 192.56055627 63.23188897 195.17764246 61.64624023 197.79467773 C60.88611538 199.04989563 60.12650681 200.30542633 59.36743164 201.5612793 C58.31915305 203.29553465 57.26899978 205.02865643 56.21875 206.76171875 C55.61998047 207.75131592 55.02121094 208.74091309 54.40429688 209.76049805 C53 212 53 212 52 213 C34.84 213 17.68 213 0 213 C0 142.71 0 72.42 0 0 Z" fill="#111111"/><path class="svgShape color595959-5 selectable" transform="translate(1058 144)" d="M0 0 C21.84106498 19.71311278 32.85128897 47.15872476 34.6875 76.25 C34.81862916 78.83339881 34.91290572 81.41438851 35 84 C35.04125 84.95648438 35.0825 85.91296875 35.125 86.8984375 C35.84574277 118.34084078 28.19643625 150.31159439 6.26953125 173.6953125 C-11.70026695 191.94347246 -34.04401062 200.96276964 -59.5456543 201.19091797 C-84.07089462 201.15918769 -105.85701573 195.98793686 -125 180 C-125.98226562 179.23623047 -125.98226562 179.23623047 -126.984375 178.45703125 C-147.02970012 162.2203179 -156.82796772 134.82274925 -160 110 C-163.14117054 75.82275802 -159.71813285 40.62886327 -138.0625 12.6875 C-136.72819105 11.10800855 -135.37416061 9.54494538 -134 8 C-133.33613281 7.24203125 -132.67226563 6.4840625 -131.98828125 5.703125 C-99.0894383 -29.56735358 -36.20144053 -29.98660095 0 0 Z M-93.3125 37.6875 C-107.51235492 56.97301725 -108.8095284 83.52359135 -105.72265625 106.5234375 C-103.53385417 120.87532965 -99.25450169 136.07477016 -88 146 C-77.35665687 153.69067375 -66.78993102 155.19867283 -54 154 C-43.76194123 151.93507752 -35.9332088 146.32436164 -30.1875 137.6875 C-21.74303387 123.33385781 -19.46474653 108.46207183 -19.55395508 92.06958008 C-19.5624559 89.69979477 -19.53359289 87.33243955 -19.50195312 84.96289062 C-19.41929124 67.16533706 -22.7473308 48.41286697 -35.3125 34.9375 C-43.50710872 27.46512798 -52.52462282 24.69216455 -63.375 23.6875 C-75.28556754 24.71427306 -85.45548803 28.43531768 -93.3125 37.6875 Z" fill="#111111"/><path class="svgShape color595959-6 selectable" transform="translate(1554.783 126.88)" d="M0 0 C1.23121582 -0.00137466 2.46243164 -0.00274933 3.73095703 -0.00416565 C5.10269189 -0.00062628 6.47442651 0.00300853 7.84616089 0.00672913 C9.28486123 0.00701108 10.72356171 0.00685311 12.16226196 0.00628662 C16.07525441 0.00599895 19.98821638 0.01189074 23.90120173 0.01886058 C27.98782352 0.02509921 32.07444596 0.02569832 36.16107178 0.02688599 C43.90294238 0.02999779 51.64479892 0.03820917 59.38666332 0.04823548 C68.19911567 0.05940127 77.01156868 0.06490824 85.82402635 0.06993091 C103.95494767 0.0803919 122.08585588 0.09798844 140.21676636 0.12025452 C140.24032307 22.42878555 140.25785569 44.73731449 140.26857853 67.04585552 C140.27369382 77.40846871 140.28064334 87.77107409 140.29220581 98.13368225 C140.30230076 107.18551493 140.30865424 116.23734195 140.31085485 125.2891801 C140.31213735 130.06404722 140.31506111 134.83889816 140.32249641 139.61375999 C140.35923646 164.13992553 139.97986154 188.60351127 139.21676636 213.12025452 C122.05676636 213.12025452 104.89676636 213.12025452 87.21676636 213.12025452 C87.21676636 158.01025452 87.21676636 102.90025452 87.21676636 46.12025452 C71.70676636 46.12025452 56.19676636 46.12025452 40.21676636 46.12025452 C40.21676636 49.42025452 40.21676636 52.72025452 40.21676636 56.12025452 C40.14005002 57.9934899 40.04338211 59.86619512 39.91305542 61.73646545 C39.84572205 62.72103729 39.77838867 63.70560913 39.70901489 64.72001648 C39.59683624 66.27164993 39.59683624 66.27164993 39.48239136 67.85462952 C39.40454407 68.95858063 39.32669678 70.06253174 39.24649048 71.19993591 C38.99245843 74.75716463 38.73092349 78.31376393 38.46676636 81.87025452 C38.37717651 83.08211426 38.28758667 84.293974 38.19528198 85.54255676 C36.82841636 103.84044027 35.24015939 122.00994993 32.21676636 140.12025452 C32.06240112 141.06288147 31.90803589 142.00550842 31.74899292 142.97669983 C28.14679607 164.3842587 22.20713102 186.60347208 6.21676636 202.12025452 C5.57996948 202.76607483 4.94317261 203.41189514 4.28707886 204.07728577 C-6.01077343 213.88374676 -18.57276852 217.52119859 -32.47073364 217.43275452 C-33.33488892 217.43074036 -34.19904419 217.4287262 -35.08938599 217.426651 C-42.98351488 217.30451653 -51.61936435 216.70218916 -58.78323364 213.12025452 C-58.78323364 196.95025452 -58.78323364 180.78025452 -58.78323364 164.12025452 C-53.50323364 164.45025452 -48.22323364 164.78025452 -42.78323364 165.12025452 C-34.24148101 163.07023388 -30.28892326 158.3503146 -25.78323364 151.12025452 C-9.99048752 115.17339343 -12.61298416 68.81750859 -10.21365833 30.18673801 C-10.09206218 28.22920733 -9.96947915 26.27173802 -9.84687805 24.31427002 C-9.69669484 21.90632233 -9.54900901 19.49821707 -9.40428162 17.0899353 C-8.68164756 5.48294025 -8.68164756 5.48294025 -7.78323364 1.12025452 C-5.08999916 -0.22636272 -3.01670801 -0.00258723 0 0 Z" fill="#111111"/><path class="svgShape color5a5a5a-7 selectable" transform="translate(856.938 142.625)" d="M0 0 C10.42103196 10.11041998 15.98106499 22.96187723 16.40942383 37.40795898 C16.56939361 51.82054086 13.10615409 63.5243173 3.234375 74.37890625 C-7.64200098 84.375 -7.64200098 84.375 -12.9375 84.375 C-12.9375 85.035 -12.9375 85.695 -12.9375 86.375 C-12.05449219 86.48972656 -11.17148437 86.60445313 -10.26171875 86.72265625 C0.66100376 88.86612823 10.25418257 97.21995465 16.9453125 105.78515625 C25.66506884 119.2591516 26.67197242 134.3638133 24.58984375 149.90234375 C21.09253264 165.8391926 11.66851221 178.53003036 -1.875 187.3125 C-30.06588903 204.72136877 -68.0030041 206.42480114 -99.8125 199.33984375 C-114.184498 195.88098099 -129.77045383 190.99824631 -141.9375 182.375 C-143.57798691 178.64588793 -142.44867892 175.58084634 -141.42578125 171.7734375 C-141.25628464 171.13693268 -141.08678802 170.50042786 -140.91215515 169.84463501 C-140.55095485 168.49690219 -140.1850202 167.15043053 -139.81469727 165.80517578 C-139.25842742 163.78067099 -138.71883947 161.75229385 -138.18164062 159.72265625 C-136.21649492 152.40234517 -133.98838997 145.32110318 -130.9375 138.375 C-129.77476562 138.95507812 -128.61203125 139.53515625 -127.4140625 140.1328125 C-119.23914527 144.14709631 -111.08406328 147.92285026 -102.4375 150.8125 C-101.7460791 151.04662598 -101.0546582 151.28075195 -100.34228516 151.52197266 C-89.8277512 154.89728503 -79.56868465 155.73848725 -68.5625 155.75 C-67.33789062 155.77449219 -66.11328125 155.79898438 -64.8515625 155.82421875 C-53.6090082 155.85994721 -42.55352605 154.05450148 -33.9375 146.375 C-29.91140353 140.87266815 -29.15786534 135.05130804 -29.9375 128.375 C-31.76561421 122.52503454 -34.86501753 118.85611542 -39.9375 115.375 C-53.02018498 108.9484179 -69.02330412 110.19855796 -83.3125 109.8125 C-88.46875 109.668125 -93.625 109.52375 -98.9375 109.375 C-98.9375 95.515 -98.9375 81.655 -98.9375 67.375 C-80.75 66.5625 -80.75 66.5625 -75.09692383 66.32885742 C-55.68582015 65.73877747 -55.68582015 65.73877747 -39.6875 56 C-36.19862474 50.76668712 -35.60212892 46.60012709 -36.4453125 40.4921875 C-37.08566238 37.73766657 -38.33009833 35.68127196 -39.9375 33.375 C-39.9375 32.715 -39.9375 32.055 -39.9375 31.375 C-40.618125 31.106875 -41.29875 30.83875 -42 30.5625 C-44.18111825 29.68077135 -46.34551754 28.75744845 -48.5 27.8125 C-62.65797093 21.89189397 -83.89819697 23.71934134 -97.9375 29.375 C-105.06537691 32.44920177 -112.01933718 35.85876993 -118.9375 39.375 C-120.27037558 40.0425814 -121.6035626 40.70954284 -122.9375 41.375 C-126.70214483 33.34814895 -130.06466372 25.20993628 -133.25 16.9375 C-133.70439453 15.78056641 -134.15878906 14.62363281 -134.62695312 13.43164062 C-135.26987305 11.76584961 -135.26987305 11.76584961 -135.92578125 10.06640625 C-136.31290283 9.06810791 -136.70002441 8.06980957 -137.09887695 7.04125977 C-137.9375 4.375 -137.9375 4.375 -137.9375 0.375 C-97.82759211 -22.2514462 -38.37800236 -32.14883554 0 0 Z" fill="#111111"/><path class="svgShape color595959-8 selectable" transform="translate(1100 127)" d="M0 0 C57.09 0 114.18 0 173 0 C173 15.18 173 30.36 173 46 C153.2 46 133.4 46 113 46 C113 101.11 113 156.22 113 213 C95.51 213 78.02 213 60 213 C60 157.89 60 102.78 60 46 C40.2 46 20.4 46 0 46 C0 30.82 0 15.64 0 0 Z" fill="#111111"/><path class="svgShape color224e8b-9 selectable" transform="translate(1968 349)" d="M0 0 C0.66 0 1.32 0 2 0 C2 0.66 2 1.32 2 2 C2.66 2 3.32 2 4 2 C4.40992188 2.83144531 4.81984375 3.66289062 5.2421875 4.51953125 C5.78101563 5.60621094 6.31984375 6.69289063 6.875 7.8125 C7.67550781 9.43091797 7.67550781 9.43091797 8.4921875 11.08203125 C9.97221139 14.07838265 9.97221139 14.07838265 12 17 C14.10159656 17.45912924 14.10159656 17.45912924 16.57461548 17.39199829 C18.02073967 17.40863777 18.02073967 17.40863777 19.49607849 17.4256134 C20.55778763 17.42260727 21.61949677 17.41960114 22.71337891 17.41650391 C24.38701759 17.42938194 24.38701759 17.42938194 26.09446716 17.44252014 C29.8052286 17.46772793 33.51572299 17.47197581 37.2265625 17.4765625 C39.80855119 17.49087263 42.39053223 17.50662966 44.97250366 17.52377319 C51.09804276 17.56147194 57.22350805 17.58652994 63.34913194 17.60489786 C74.91769783 17.64011348 86.48611677 17.70463465 98.05454636 17.76975632 C101.83638246 17.78867393 105.6181876 17.80053506 109.40005493 17.81118774 C121.30401213 17.85688224 133.13193349 18.01555536 145 19 C145 19.33 145 19.66 145 20 C127.78009119 20.23377518 110.56067864 20.41002568 93.33954525 20.51812172 C85.34309227 20.5696509 77.34762611 20.63987788 69.35180664 20.75439453 C62.3811985 20.8541803 55.41130503 20.91860764 48.4400025 20.94088495 C44.74949085 20.95390523 41.0610233 20.98441449 37.37116814 21.05730057 C33.24775102 21.13808744 29.12786823 21.13989281 25.00366211 21.13525391 C23.17594017 21.18918304 23.17594017 21.18918304 21.31129456 21.24420166 C13.19912394 21.14540251 13.19912394 21.14540251 9.70588875 17.80866623 C7.90361807 15.27479328 6.4067166 12.7697564 5 10 C4.12021484 8.43378906 4.12021484 8.43378906 3.22265625 6.8359375 C2.83980469 6.02382813 2.45695312 5.21171875 2.0625 4.375 C1.66160156 3.53710938 1.26070312 2.69921875 0.84765625 1.8359375 C0.56792969 1.23007812 0.28820313 0.62421875 0 0 Z" fill="#224E8B"/><path class="svgShape color23508b-10 selectable" transform="translate(1881 347)" d="M0 0 C0.33 0 0.66 0 1 0 C2.26514845 7.5908907 2.54809895 15.31768214 3 23 C-37.92 22.67 -78.84 22.34 -121 22 C-117.22111099 20.1105555 -116.05070757 19.75096415 -112.07720947 19.75949097 C-110.59227745 19.75536697 -110.59227745 19.75536697 -109.0773468 19.75115967 C-107.9976915 19.75835022 -106.91803619 19.76554077 -105.80566406 19.77294922 C-104.6639122 19.77265717 -103.52216034 19.77236511 -102.34580994 19.77206421 C-98.56900453 19.77345841 -94.79239598 19.78902413 -91.015625 19.8046875 C-88.39817411 19.8084173 -85.78072183 19.81126443 -83.16326904 19.81326294 C-76.9761988 19.81947694 -70.78919931 19.83588666 -64.60216022 19.85596192 C-57.55747144 19.87832342 -50.51277927 19.88931498 -43.46806383 19.89935279 C-28.97867184 19.92025297 -14.48933928 19.95583068 0 20 C0 13.4 0 6.8 0 0 Z" fill="#23508B"/><path class="svgShape color2a518a-11 selectable" transform="translate(2174 165)" d="M0 0 C0.66 0 1.32 0 2 0 C2.33209473 0.61407715 2.66418945 1.2281543 3.00634766 1.86083984 C4.54357773 4.70015658 6.08427045 7.53758081 7.625 10.375 C8.14707031 11.34050781 8.66914063 12.30601562 9.20703125 13.30078125 C12.25506276 18.90765402 15.40141111 24.43190275 18.71630859 29.88549805 C20.53978984 32.88914412 22.28582932 35.93319282 24 39 C24.50917969 39.90234375 25.01835937 40.8046875 25.54296875 41.734375 C26.08566406 42.70890625 26.62835937 43.6834375 27.1875 44.6875 C27.69667969 45.59886719 28.20585937 46.51023438 28.73046875 47.44921875 C29.83764198 49.67378527 30.52857097 51.57469643 31 54 C31.66 54 32.32 54 33 54 C33.28875 54.7425 33.5775 55.485 33.875 56.25 C34.82302644 58.56739797 35.84845911 60.77917115 37 63 C36.01 63.495 36.01 63.495 35 64 C34.6189209 63.30777344 34.2378418 62.61554688 33.84521484 61.90234375 C26.30218868 48.21807281 18.68735096 34.59137803 10.74560547 21.1328125 C0 2.89079877 0 2.89079877 0 0 Z" fill="#2A518A"/><path class="svgShape color1f477e-12 selectable" transform="translate(2273 337)" d="M0 0 C4.45605997 5.62870734 8.02239331 11.77038256 11.10546875 18.23828125 C12.08939929 20.26181425 12.08939929 20.26181425 14 23 C14 23.99 14 24.98 14 26 C14.66 26 15.32 26 16 26 C16.33 27.65 16.66 29.3 17 31 C40.1 31 63.2 31 87 31 C87 31.33 87 31.66 87 32 C63.57 32 40.14 32 16 32 C2 7 2 7 -1 1 C-0.67 0.67 -0.34 0.34 0 0 Z" fill="#1F477E"/><path class="svgShape color2c568c-13 selectable" transform="translate(1797 83)" d="M0 0 C2 2 2 2 2.01171875 4.20703125 C1.90472656 5.06683594 1.79773437 5.92664063 1.6875 6.8125 C1.57792969 7.71613281 1.46835938 8.61976562 1.35546875 9.55078125 C0.99173515 12.05694574 0.49656916 14.51715421 0 17 C-0.53019288 21.37409122 -0.92894187 25.75339328 -1.1796875 30.15234375 C-1.61351284 37.44928593 -2.77988868 44.03248081 -5 51 C-5.33 51 -5.66 51 -6 51 C-5.3937642 39.7794611 -3.9913884 28.74552077 -2.4375 17.625 C-2.20075783 15.90630698 -1.96442714 14.18755723 -1.72851562 12.46875 C-1.15707188 8.31183257 -0.58011266 4.15571613 0 0 Z" fill="#2C568C"/><path class="svgShape color2d5589-14 selectable" transform="translate(1765 319)" d="M0 0 C0.66 0 1.32 0 2 0 C0.94653573 9.78376927 -0.15107537 19.55269311 -1.5 29.30078125 C-1.85718846 31.94341778 -2.19107758 34.58230373 -2.5 37.23046875 C-2.58378906 37.92374268 -2.66757813 38.6170166 -2.75390625 39.33129883 C-2.98731843 41.26968509 -3.21264235 43.20904028 -3.4375 45.1484375 C-3.623125 46.08945312 -3.80875 47.03046875 -4 48 C-4.99 48.495 -4.99 48.495 -6 49 C-5.36956623 38.30655135 -3.95427902 27.7838428 -2.4375 17.1875 C-2.20079897 15.51242244 -1.96446841 13.83729249 -1.72851562 12.16210938 C-1.15660301 8.10745763 -0.57971638 4.05354304 0 0 Z" fill="#2D5589"/><path class="svgShape color33578c-15 selectable" transform="translate(2150 176)" d="M0 0 C0.33 0.66 0.66 1.32 1 2 C0.37011719 3.66967773 0.37011719 3.66967773 -0.703125 5.68359375 C-1.10160645 6.43793701 -1.50008789 7.19228027 -1.91064453 7.96948242 C-2.35263184 8.78392822 -2.79461914 9.59837402 -3.25 10.4375 C-3.91878174 11.6891394 -3.91878174 11.6891394 -4.60107422 12.96606445 C-9.51983731 22.09932484 -14.72955414 31.06624652 -20 40 C-20.33 38.68 -20.66 37.36 -21 36 C-20.34 36 -19.68 36 -19 36 C-18.7834375 34.824375 -18.7834375 34.824375 -18.5625 33.625 C-18 31 -18 31 -17 29 C-16.34 29 -15.68 29 -15 29 C-14.81824219 28.31292969 -14.63648437 27.62585938 -14.44921875 26.91796875 C-14.19785156 26.01691406 -13.94648438 25.11585938 -13.6875 24.1875 C-13.44386719 23.29417969 -13.20023438 22.40085938 -12.94921875 21.48046875 C-11.95702674 18.88770361 -10.98668364 17.86251592 -9 16 C-8.02284391 14.19809386 -8.02284391 14.19809386 -7.3125 12.3125 C-6.879375 11.219375 -6.44625 10.12625 -6 9 C-5.34 9 -4.68 9 -4 9 C-3.71125 7.88625 -3.4225 6.7725 -3.125 5.625 C-2 2 -2 2 0 0 Z" fill="#33578C"/><path class="svgShape color2c5287-16 selectable" transform="translate(1772 271)" d="M0 0 C0.33 0 0.66 0 1 0 C1.27717 8.85211683 0.19676284 17.38220573 -1 26.125 C-1.19330443 27.57283721 -1.38601717 29.02075354 -1.578125 30.46875 C-2.04527248 33.98010422 -2.52039307 37.49032321 -3 41 C-4.67735062 38.0978593 -5.22711866 36.306073 -4.828125 32.98046875 C-4.74167725 32.2121875 -4.65522949 31.44390625 -4.56616211 30.65234375 C-4.40966187 29.43224609 -4.40966187 29.43224609 -4.25 28.1875 C-4.15146729 27.34960938 -4.05293457 26.51171875 -3.95141602 25.6484375 C-3.64726712 23.09716784 -3.325369 20.54864081 -3 18 C-2.81628024 16.50652591 -2.63267884 15.01303726 -2.44921875 13.51953125 C-1.19487765 3.58463294 -1.19487765 3.58463294 0 0 Z" fill="#2C5287"/><path class="svgShape color29548e-17 selectable" transform="translate(1791 135)" d="M0 0 C0.33 0 0.66 0 1 0 C0.8897609 3.72975606 0.75921587 7.45853583 0.625 11.1875 C0.57859375 12.77014648 0.57859375 12.77014648 0.53125 14.38476562 C0.49257812 15.40634766 0.45390625 16.42792969 0.4140625 17.48046875 C0.3826416 18.41785889 0.3512207 19.35524902 0.31884766 20.32104492 C-0.02184349 23.1835288 -0.86832164 25.3616896 -2 28 C-2.37593066 29.9924325 -2.71979545 31.9918674 -3 34 C-3.66 33.67 -4.32 33.34 -5 33 C-2.18489583 4.36979167 -2.18489583 4.36979167 0 0 Z" fill="#29548E"/><path class="svgShape color3e6796-18 selectable" transform="translate(1922 55)" d="M0 0 C0 4.13494803 -2.2205245 5.74128355 -4.9375 8.5625 C-5.94823679 9.63902245 -6.95864853 10.71585016 -7.96875 11.79296875 C-8.47792969 12.33099121 -8.98710938 12.86901367 -9.51171875 13.42333984 C-17.39469222 21.71005855 -17.39469222 21.71005855 -24 31 C-24.99 30.34 -25.98 29.68 -27 29 C-26.57589844 28.5875 -26.15179687 28.175 -25.71484375 27.75 C-21.98108195 24.07368069 -18.45651229 20.29112131 -15.03515625 16.32421875 C-12.46154972 13.38507118 -9.82877454 10.50330097 -7.1875 7.625 C-6.70700195 7.10075439 -6.22650391 6.57650879 -5.73144531 6.03637695 C-3.85132523 3.99046204 -1.96500401 1.96500401 0 0 Z" fill="#3E6796"/><path class="svgShape color285181-19 selectable" transform="translate(2212 230)" d="M0 0 C2 3 2 3 2 5 C2.66 5 3.32 5 4 5 C4.50789063 5.96679688 5.01578125 6.93359375 5.5390625 7.9296875 C6.23370024 9.2451482 6.92906309 10.56022615 7.625 11.875 C7.98601807 12.55739746 8.34703613 13.23979492 8.71899414 13.94287109 C11.2559121 18.70064301 13.95094009 23.31617398 16.87109375 27.8515625 C18.12020579 30.22876535 18.59651705 32.35649103 19 35 C15.95634018 32.34046861 14.23043296 29.17866728 12.2421875 25.6875 C11.8936673 25.07737061 11.54514709 24.46724121 11.18606567 23.83862305 C10.45262498 22.55225876 9.72154158 21.26454791 8.99267578 19.97558594 C7.87716718 18.00383068 6.75366725 16.0368016 5.62890625 14.0703125 C0.14450697 4.43352091 0.14450697 4.43352091 -1 1 C-0.67 0.67 -0.34 0.34 0 0 Z" fill="#285181"/><path class="svgShape color2d5286-20 selectable" transform="translate(2083 328)" d="M0 0 C9.33333333 9.33333333 18.66666667 18.66666667 28 28 C27.34 28.66 26.68 29.32 26 30 C26 29.34 26 28.68 26 28 C25.01 27.67 24.02 27.34 23 27 C21.45703125 25.43359375 21.45703125 25.43359375 19.8125 23.4375 C15.24782949 18.05253986 10.23095736 13.18138053 5.1875 8.25 C0 2.91428571 0 2.91428571 0 0 Z" fill="#2D5286"/><path class="svgShape color2a4e81-21 selectable" transform="translate(1955 79)" d="M0 0 C0.66 0 1.32 0 2 0 C0.67904588 4.34837687 -1.01802143 8.10451052 -3.2578125 12.0546875 C-3.88300781 13.16328125 -4.50820312 14.271875 -5.15234375 15.4140625 C-5.80332031 16.55617188 -6.45429687 17.69828125 -7.125 18.875 C-7.79084477 20.05181177 -8.45621396 21.22889276 -9.12109375 22.40625 C-10.74274265 25.27351326 -12.36917199 28.13795084 -14 31 C-14.33 31 -14.66 31 -15 31 C-15 29.35 -15 27.7 -15 26 C-14.01 25.67 -13.02 25.34 -12 25 C-10.97718482 22.90280128 -10.97718482 22.90280128 -10.3125 20.4375 C-10.06113281 19.61121094 -9.80976562 18.78492187 -9.55078125 17.93359375 C-9.36902344 17.29550781 -9.18726563 16.65742187 -9 16 C-8.34 16 -7.68 16 -7 16 C-6.34 13.69 -5.68 11.38 -5 9 C-4.34 9 -3.68 9 -3 9 C-2.67 7.02 -2.34 5.04 -2 3 C-1.34 3 -0.68 3 0 3 C0 2.01 0 1.02 0 0 Z" fill="#2A4E81"/><path class="svgShape color234b83-22 selectable" transform="translate(2423 361)" d="M0 0 C5.875 4.625 5.875 4.625 7 8 C-7.52 8 -22.04 8 -37 8 C-37 7.67 -37 7.34 -37 7 C-23.8 6.67 -10.6 6.34 3 6 C2.01 4.68 1.02 3.36 0 2 C0 1.34 0 0.68 0 0 Z" fill="#234B83"/><path class="svgShape color33588a-23 selectable" transform="translate(2273 337)" d="M0 0 C4.45605997 5.62870734 8.02239331 11.77038256 11.10546875 18.23828125 C12.08939929 20.26181425 12.08939929 20.26181425 14 23 C14 23.99 14 24.98 14 26 C14.66 26 15.32 26 16 26 C16.33 27.98 16.66 29.96 17 32 C12.43172095 26.53421277 9.15554497 20.51018683 5.6875 14.3125 C5.02301056 13.14765859 4.35829902 11.98294385 3.69335938 10.81835938 C3.07654297 9.71943359 2.45972656 8.62050781 1.82421875 7.48828125 C1.25791748 6.48321533 0.69161621 5.47814941 0.1081543 4.44262695 C-0.44038208 3.23352661 -0.44038208 3.23352661 -1 2 C-0.67 1.34 -0.34 0.68 0 0 Z" fill="#33588A"/><path class="svgShape color295389-24 selectable" transform="translate(1954 196)" d="M0 0 C5.99500997 4.96194855 11.46427037 10.3476624 16.9375 15.875 C17.81212891 16.75414062 18.68675781 17.63328125 19.58789062 18.5390625 C21.72757048 20.6904346 23.86486597 22.84411792 26 25 C25.01 25.33 24.02 25.66 23 26 C22.40832031 25.32453125 21.81664062 24.6490625 21.20703125 23.953125 C20.41683594 23.06109375 19.62664062 22.1690625 18.8125 21.25 C18.03519531 20.36828125 17.25789063 19.4865625 16.45703125 18.578125 C14.11054276 16.11599081 11.66250331 14.10603156 9 12 C7.7342851 10.70131056 6.50212132 9.36873284 5.3125 8 C4.44044922 7.01 4.44044922 7.01 3.55078125 6 C2.05154669 4.06647835 1.05745767 2.19553256 0 0 Z" fill="#295389"/><path class="svgShape color2d548a-25 selectable" transform="translate(2038 159)" d="M0 0 C0.66 0 1.32 0 2 0 C3.5078125 2.08203125 3.5078125 2.08203125 5.125 4.8125 C5.66382813 5.70582031 6.20265625 6.59914062 6.7578125 7.51953125 C8 10 8 10 8 13 C8.66 13 9.32 13 10 13 C12.04169485 15.90548882 13 17.40142046 13 21 C13.66 21 14.32 21 15 21 C15.66 22.65 16.32 24.3 17 26 C16.34 26.33 15.68 26.66 15 27 C11 20.33333333 7 13.66666667 3 7 C2.44481689 6.11594482 1.88963379 5.23188965 1.31762695 4.32104492 C0 2 0 2 0 0 Z" fill="#2D548A"/><path class="svgShape color2d558d-26 selectable" transform="translate(1924 165)" d="M0 0 C5.43733055 4.52991796 10.46458931 9.34294216 15.4375 14.375 C16.16904297 15.11105469 16.90058594 15.84710938 17.65429688 16.60546875 C19.43852723 18.40136074 21.22036124 20.19955985 23 22 C22.34 22.66 21.68 23.32 21 24 C20.7525 23.38125 20.505 22.7625 20.25 22.125 C19.17856271 19.86253506 19.17856271 19.86253506 17 19 C14.50983207 17.75491604 14.01313282 16.53283204 13 14 C12.34 14 11.68 14 11 14 C11 13.34 11 12.68 11 12 C10.01 11.67 9.02 11.34 8 11 C6.2109375 9.2578125 6.2109375 9.2578125 4.375 7.125 C3.76398438 6.42632812 3.15296875 5.72765625 2.5234375 5.0078125 C1 3 1 3 0 0 Z" fill="#2D558D"/><path class="svgShape color375e91-27 selectable" transform="translate(1981 6)" d="M0 0 C5.25174926 4.38442526 10.13222473 9.00842093 14.9375 13.875 C15.62134766 14.56335937 16.30519531 15.25171875 17.00976562 15.9609375 C18.67551464 17.63833511 20.3388622 19.31803791 22 21 C21.34 21.66 20.68 22.32 20 23 C20 22.34 20 21.68 20 21 C19.17822266 20.68675781 19.17822266 20.68675781 18.33984375 20.3671875 C15.14553283 18.5007287 12.96620319 15.88248069 10.5625 13.125 C7.88523183 10.07269149 5.38082642 7.29358635 2.15234375 4.8046875 C1.44207031 4.20914062 0.73179688 3.61359375 0 3 C0 2.01 0 1.02 0 0 Z" fill="#375E91"/><path class="svgShape color2e5a8c-28 selectable" transform="translate(2067 95)" d="M0 0 C5.99500997 4.96194855 11.46427037 10.3476624 16.9375 15.875 C17.81212891 16.75414063 18.68675781 17.63328125 19.58789062 18.5390625 C21.72757048 20.6904346 23.86486597 22.84411792 26 25 C23 25 23 25 20.15234375 22.41015625 C19.07310597 21.30164198 18.00176601 20.18539623 16.9375 19.0625 C13.34450657 15.0479068 13.34450657 15.0479068 9 12 C9 11.34 9 10.68 9 10 C8.01 9.67 7.02 9.34 6 9 C4.39453125 7.44140625 4.39453125 7.44140625 2.8125 5.5625 C2.01779297 4.63630859 2.01779297 4.63630859 1.20703125 3.69140625 C0 2 0 2 0 0 Z" fill="#2E5A8C"/><path class="svgShape color274e86-29 selectable" transform="translate(2114 240)" d="M0 0 C0.99 0.33 1.98 0.66 3 1 C0.94073486 4.68069171 -1.15121017 8.34172394 -3.25 12 C-4.12978516 13.57394531 -4.12978516 13.57394531 -5.02734375 15.1796875 C-5.60097656 16.17226563 -6.17460937 17.16484375 -6.765625 18.1875 C-7.55114746 19.57001953 -7.55114746 19.57001953 -8.35253906 20.98046875 C-8.89620117 21.64691406 -9.43986328 22.31335938 -10 23 C-11.32 23 -12.64 23 -14 23 C-14 22.34 -14 21.68 -14 21 C-13.01 20.67 -12.02 20.34 -11 20 C-9.31250296 17.45327745 -9.31250296 17.45327745 -7.8125 14.4375 C-7.01779297 12.91962891 -7.01779297 12.91962891 -6.20703125 11.37109375 C-5.80871094 10.58863281 -5.41039063 9.80617187 -5 9 C-4.34 9 -3.68 9 -3 9 C-2.01 6.03 -1.02 3.06 0 0 Z" fill="#274E86"/><path class="svgShape color2d5388-30 selectable" transform="translate(2004 30)" d="M0 0 C5.62303757 4.67466337 10.79741554 9.67765667 15.9375 14.875 C16.71673828 15.65875 17.49597656 16.4425 18.29882812 17.25 C20.20154085 19.16438581 22.10186171 21.08108034 24 23 C23.67 23.99 23.34 24.98 23 26 C22.55269531 25.46890625 22.10539062 24.9378125 21.64453125 24.390625 C18.3085706 20.49274347 15.03320123 17.18410623 11 14 C9.31267723 12.01739574 7.64633943 10.0167658 6 8 C5.0925 7.113125 4.185 6.22625 3.25 5.3125 C1 3 1 3 0 0 Z" fill="#2D5388"/><path class="svgShape color26538a-31 selectable" transform="translate(2372 306)" d="M0 0 C7.69585469 6.43938862 14.48247152 13.37310498 21 21 C17.06830895 21 15.83572772 19.60580385 13 17 C13 16.34 13 15.68 13 15 C12.01 14.67 11.02 14.34 10 14 C8.98648336 12.34151823 7.98879205 10.67334039 7 9 C6.154375 8.154375 5.30875 7.30875 4.4375 6.4375 C2.24539919 4.24539919 1.25980215 2.74602035 0 0 Z" fill="#26538A"/><path class="svgShape color31578e-32 selectable" transform="translate(2026 270)" d="M0 0 C5.25174926 4.38442526 10.13222473 9.00842093 14.9375 13.875 C15.62134766 14.56335938 16.30519531 15.25171875 17.00976562 15.9609375 C18.67551464 17.63833511 20.3388622 19.31803791 22 21 C21.34 21.33 20.68 21.66 20 22 C19.29875 21.278125 18.5975 20.55625 17.875 19.8125 C15.96189068 17.88855154 14.05503352 16.22859879 11.9375 14.5 C9.19511833 12.16605816 7.22893564 9.80414483 5 7 C4.0925 6.29875 3.185 5.5975 2.25 4.875 C1.13625 3.946875 1.13625 3.946875 0 3 C0 2.01 0 1.02 0 0 Z" fill="#31578E"/><path class="svgShape color2a5186-33 selectable" transform="translate(1780 212)" d="M0 0 C0.33 0 0.66 0 1 0 C1.55353075 19.00455581 1.55353075 19.00455581 -2 27 C-2.33 27 -2.66 27 -3 27 C-3.15366997 20.60348741 -2.64846374 14.72301098 -1.5 8.4375 C-1.35691406 7.61958984 -1.21382812 6.80167969 -1.06640625 5.95898438 C-0.71771688 3.97145496 -0.35983915 1.98554104 0 0 Z" fill="#2A5186"/><path class="svgShape color234d87-34 selectable" transform="translate(2161 83)" d="M0 0 C3.84281736 1.92140868 5.80431927 3.5926816 8.75 6.625 C9.54921875 7.44226563 10.3484375 8.25953125 11.171875 9.1015625 C11.77515625 9.72804688 12.3784375 10.35453125 13 11 C9.25983417 11 8.54723807 10.0658409 5.8125 7.625 C4.73935547 6.68527344 4.73935547 6.68527344 3.64453125 5.7265625 C2 4 2 4 2 2 C1.34 2 0.68 2 0 2 C-0.226875 2.5775 -0.45375 3.155 -0.6875 3.75 C-2.33038023 6.5663661 -4.39533227 8.08077114 -7 10 C-7.66 9.67 -8.32 9.34 -9 9 C-6.03 6.03 -3.06 3.06 0 0 Z" fill="#234D87"/><path class="svgShape color2f578d-35 selectable" transform="translate(2001 99)" d="M0 0 C3.6607519 1.22025063 3.92339441 2.126491 5.6875 5.4375 C6.34298828 6.64212891 6.34298828 6.64212891 7.01171875 7.87109375 C8 10 8 10 8 12 C8.66 12 9.32 12 10 12 C10.25394531 12.53109375 10.50789063 13.0621875 10.76953125 13.609375 C12.59750746 17.36117635 14.44864311 20.68323605 17 24 C17 24.66 17 25.32 17 26 C16.34 26 15.68 26 15 26 C13.39599609 23.72094727 13.39599609 23.72094727 11.5234375 20.56640625 C10.51796875 18.8812793 10.51796875 18.8812793 9.4921875 17.16210938 C9.14510742 16.57196045 8.79802734 15.98181152 8.44042969 15.3737793 C7.37914794 13.56955168 6.30780973 11.77162774 5.234375 9.97460938 C0 1.15802214 0 1.15802214 0 0 Z" fill="#2F578D"/><path class="svgShape color2e548a-36 selectable" transform="translate(1986 73)" d="M0 0 C0.66 0 1.32 0 2 0 C2.31453125 0.60328125 2.6290625 1.2065625 2.953125 1.828125 C5.60742837 6.86511689 5.60742837 6.86511689 9.25 11.1875 C11.59927121 13.62067376 11.70012404 15.70136449 12 19 C11.34 19 10.68 19 10 19 C8.85498047 17.47119141 8.85498047 17.47119141 7.6171875 15.3515625 C7.17246094 14.59359375 6.72773437 13.835625 6.26953125 13.0546875 C5.80933594 12.25289062 5.34914063 11.45109375 4.875 10.625 C4.40707031 9.8309375 3.93914062 9.036875 3.45703125 8.21875 C0 2.2722531 0 2.2722531 0 0 Z" fill="#2E548A"/><path class="svgShape color2a5489-37 selectable" transform="translate(2062 307)" d="M0 0 C6.03331362 4.98404168 11.5184171 10.41915303 17 16 C16.01 16.33 15.02 16.66 14 17 C10.73350526 13.82424122 7.84225739 10.55282173 5 7 C4.0925 6.113125 3.185 5.22625 2.25 4.3125 C0 2 0 2 0 0 Z" fill="#2A5489"/><path class="svgShape color2d5796-38 selectable" transform="translate(1962 11)" d="M0 0 C0.77734375 1.703125 0.77734375 1.703125 1 4 C-0.87109375 6.359375 -0.87109375 6.359375 -3.4375 8.75 C-4.70400391 9.94882812 -4.70400391 9.94882812 -5.99609375 11.171875 C-6.65738281 11.77515625 -7.31867188 12.3784375 -8 13 C-8.77734375 11.296875 -8.77734375 11.296875 -9 9 C-7.12890625 6.640625 -7.12890625 6.640625 -4.5625 4.25 C-3.71816406 3.45078125 -2.87382813 2.6515625 -2.00390625 1.828125 C-1.34261719 1.22484375 -0.68132812 0.6215625 0 0 Z" fill="#2D5796"/><path class="svgShape color285285-39 selectable" transform="translate(2213 137)" d="M0 0 C0.66 0 1.32 0 2 0 C3.48046875 1.50390625 3.48046875 1.50390625 5.1875 3.5625 C8.60201725 7.58675247 12.21845349 11.32190005 16 15 C15.01 15.33 14.02 15.66 13 16 C12.56429687 15.48050781 12.12859375 14.96101562 11.6796875 14.42578125 C8.81376242 11.06979538 6.05419187 7.90418628 2.5625 5.1875 C1.716875 4.465625 0.87125 3.74375 0 3 C0 2.01 0 1.02 0 0 Z" fill="#285285"/><path class="svgShape color315a93-40 selectable" transform="translate(1874 108)" d="M0 0 C0.66 0.66 1.32 1.32 2 2 C0.90033225 3.29549899 -0.20491801 4.58626071 -1.3125 5.875 C-1.92738281 6.59429687 -2.54226563 7.31359375 -3.17578125 8.0546875 C-5 10 -5 10 -8 12 C-7.84595887 6.91664275 -4.97931568 4.64245282 -1.49609375 1.35546875 C-1.00238281 0.90816406 -0.50867187 0.46085937 0 0 Z" fill="#315A93"/><path class="svgShape color2c5387-41 selectable" transform="translate(2160 156)" d="M0 0 C0.66 0 1.32 0 2 0 C1.30150228 3.9745504 -0.62892769 7.26574098 -2.5625 10.75 C-3.0565332 11.65298828 -3.0565332 11.65298828 -3.56054688 12.57421875 C-4.3696465 14.05170503 -5.18427662 15.52616036 -6 17 C-6.33 17 -6.66 17 -7 17 C-7 15.02 -7 13.04 -7 11 C-6.01 10.67 -5.02 10.34 -4 10 C-4 9.01 -4 8.02 -4 7 C-3.34 7 -2.68 7 -2 7 C-2 5.68 -2 4.36 -2 3 C-1.34 3 -0.68 3 0 3 C0 2.01 0 1.02 0 0 Z" fill="#2C5387"/><path class="svgShape color2a548d-42 selectable" transform="translate(1808)" d="M0 0 C0.99 0.33 1.98 0.66 3 1 C2.67 1.33 2.34 1.66 2 2 C1.77428816 3.41120902 1.60611651 4.83176043 1.46484375 6.25390625 C1.37783203 7.10791016 1.29082031 7.96191406 1.20117188 8.84179688 C1.11416016 9.73962891 1.02714844 10.63746094 0.9375 11.5625 C0.84662109 12.46419922 0.75574219 13.36589844 0.66210938 14.29492188 C0.43746077 16.52958434 0.21694231 18.76457839 0 21 C-2.16235504 17.75646744 -2.21879428 17.38055519 -1.7578125 13.76953125 C-1.66113281 12.96708984 -1.56445312 12.16464844 -1.46484375 11.33789062 C-1.35269531 10.50451172 -1.24054688 9.67113281 -1.125 8.8125 C-1.02058594 7.96751953 -0.91617187 7.12253906 -0.80859375 6.25195312 C-0.54940443 4.16665725 -0.27605197 2.08313064 0 0 Z" fill="#2A548D"/><path class="svgShape color2c538c-43 selectable" transform="translate(1968 349)" d="M0 0 C0.66 0 1.32 0 2 0 C2 0.66 2 1.32 2 2 C2.66 2 3.32 2 4 2 C4.39832031 2.80824219 4.79664063 3.61648438 5.20703125 4.44921875 C5.73683594 5.51785156 6.26664063 6.58648437 6.8125 7.6875 C7.33457031 8.74324219 7.85664062 9.79898437 8.39453125 10.88671875 C9.8286728 13.66776696 11.35603378 16.33904567 13 19 C9.52030545 17.84010182 9.27740317 17.27298661 7.51953125 14.21875 C7.07802734 13.45949219 6.63652344 12.70023437 6.18164062 11.91796875 C5.72982422 11.12003906 5.27800781 10.32210938 4.8125 9.5 C4.34908203 8.70207031 3.88566406 7.90414063 3.40820312 7.08203125 C0 1.16912509 0 1.16912509 0 0 Z" fill="#2C538C"/><path class="svgShape color2a5488-44 selectable" transform="translate(2075 220)" d="M0 0 C0.66 0 1.32 0 2 0 C2.391875 0.86625 2.78375 1.7325 3.1875 2.625 C4.59212396 5.24050668 5.71911761 6.95947566 7.625 9.125 C9.71188754 11.65123229 10.63473236 12.83434709 11 16 C10.34 16.33 9.68 16.66 9 17 C7.49462965 14.54481265 5.99555574 12.0861548 4.5 9.625 C4.07074219 8.92632812 3.64148437 8.22765625 3.19921875 7.5078125 C0 2.2265625 0 2.2265625 0 0 Z" fill="#2A5488"/><path class="svgShape color2d5284-45 selectable" transform="translate(2150 176)" d="M0 0 C0.33 0.66 0.66 1.32 1 2 C-0.19416099 4.59766871 -1.44024102 7.06178439 -2.8125 9.5625 C-3.18181641 10.26052734 -3.55113281 10.95855469 -3.93164062 11.67773438 C-6.73557932 16.86778966 -6.73557932 16.86778966 -9 18 C-8.01 15.03 -7.02 12.06 -6 9 C-5.34 9 -4.68 9 -4 9 C-3.566875 7.329375 -3.566875 7.329375 -3.125 5.625 C-2 2 -2 2 0 0 Z" fill="#2D5284"/><path class="svgShape color316398-46 selectable" transform="translate(1878 305)" d="M0 0 C0.33 0 0.66 0 1 0 C1.22119939 2.62450086 1.42746669 5.24870486 1.625 7.875 C1.68945312 8.62136719 1.75390625 9.36773437 1.8203125 10.13671875 C1.96087365 12.0870047 1.98759849 14.04469467 2 16 C1.34 16.66 0.68 17.32 0 18 C-1.35119149 15.29761702 -1.13237128 13.13985554 -1.125 10.125 C-1.12757812 9.07570313 -1.13015625 8.02640625 -1.1328125 6.9453125 C-1.01998664 4.44323315 -0.72508762 2.38243077 0 0 Z" fill="#316398"/><path class="svgShape color355b8f-47 selectable" transform="translate(1915 256)" d="M0 0 C2.76572122 3.22667476 4.50234023 6.04189917 6 10 C6.66 10.66 7.32 11.32 8 12 C8.70710678 13.64991582 9.37943989 15.31562256 10 17 C9.34 17.33 8.68 17.66 8 18 C6.46935061 15.38029207 4.95030252 12.75498357 3.4375 10.125 C2.99986328 9.37863281 2.56222656 8.63226563 2.11132812 7.86328125 C1.70205078 7.14785156 1.29277344 6.43242187 0.87109375 5.6953125 C0.48880615 5.03547363 0.10651855 4.37563477 -0.28735352 3.69580078 C-0.52252686 3.13618652 -0.7577002 2.57657227 -1 2 C-0.67 1.34 -0.34 0.68 0 0 Z" fill="#355B8F"/><path class="svgShape color305990-48 selectable" transform="translate(1877 224)" d="M0 0 C0.66 0 1.32 0 2 0 C0.35433477 5.68502535 -2.29032784 10.76681636 -5 16 C-5.33 16 -5.66 16 -6 16 C-6 14.02 -6 12.04 -6 10 C-5.34 10 -4.68 10 -4 10 C-3.67 8.35 -3.34 6.7 -3 5 C-2.34 5 -1.68 5 -1 5 C-0.67 3.35 -0.34 1.7 0 0 Z" fill="#305990"/><path class="svgShape color375989-49 selectable" transform="translate(2130 114)" d="M0 0 C0.33 0.66 0.66 1.32 1 2 C0.29875 2.680625 -0.4025 3.36125 -1.125 4.0625 C-3.80694465 6.71405434 -6.14592558 9.58206583 -8.47265625 12.546875 C-10.26556821 14.25266336 -11.58749134 14.60569751 -14 15 C-9.59156563 9.70987876 -4.92440206 4.81191572 0 0 Z" fill="#375989"/><path class="svgShape color2e588d-50 selectable" transform="translate(2022 131)" d="M0 0 C2.39521208 3.11009076 4.56495939 6.32327016 6.6875 9.625 C7.62142578 11.06746094 7.62142578 11.06746094 8.57421875 12.5390625 C10 15 10 15 10 17 C9.34 17 8.68 17 8 17 C6.33526758 14.56943154 4.80712601 12.15685489 3.3125 9.625 C2.88388672 8.92632812 2.45527344 8.22765625 2.01367188 7.5078125 C0.94074999 5.71097069 -0.03744173 3.85830122 -1 2 C-0.67 1.34 -0.34 0.68 0 0 Z" fill="#2E588D"/><path class="svgShape color295186-51 selectable" transform="translate(1927 129)" d="M0 0 C0.66 0 1.32 0 2 0 C1.32599282 3.91114026 -0.54256033 6.87119182 -2.5625 10.25 C-3.20316406 11.32765625 -3.84382813 12.4053125 -4.50390625 13.515625 C-4.99761719 14.33546875 -5.49132813 15.1553125 -6 16 C-6.625 14.1875 -6.625 14.1875 -7 12 C-6.34 11.01 -5.68 10.02 -5 9 C-4.34 9 -3.68 9 -3 9 C-2.01 6.03 -1.02 3.06 0 0 Z" fill="#295186"/><path class="svgShape color275186-52 selectable" transform="translate(2112 359)" d="M0 0 C1.13199353 0.9080162 2.25532363 1.82683826 3.375 2.75 C4.00148438 3.26046875 4.62796875 3.7709375 5.2734375 4.296875 C7.08312318 6.08199481 8.00117455 7.67949644 9 10 C6.69 10 4.38 10 2 10 C2.226875 9.4225 2.45375 8.845 2.6875 8.25 C3.27095593 5.89006205 3.27095593 5.89006205 1.5625 3.875 C1.046875 3.25625 0.53125 2.6375 0 2 C0 1.34 0 0.68 0 0 Z" fill="#275186"/><path class="svgShape color2c5587-53 selectable" transform="translate(2198 121)" d="M0 0 C5.29012124 4.40843437 10.18808428 9.07559794 15 14 C11.45595664 14 10.89732095 13.39010515 8.3125 11.125 C7.68988281 10.59132812 7.06726562 10.05765625 6.42578125 9.5078125 C5 8 5 8 5 6 C4.34 6 3.68 6 3 6 C0 2.53846154 0 2.53846154 0 0 Z" fill="#2C5587"/><path class="svgShape color305488-54 selectable" transform="translate(2002 245)" d="M0 0 C4.554787 3.80014774 8.95279259 7.65665546 13 12 C13 12.66 13 13.32 13 14 C11 14 11 14 8.875 12.125 C7 10 7 10 7 8 C6.401875 7.7525 5.80375 7.505 5.1875 7.25 C2.68373081 5.81927475 1.51927612 4.4308418 0 2 C0 1.34 0 0.68 0 0 Z" fill="#305488"/><path class="svgShape color345c93-55 selectable" transform="translate(1939 36)" d="M0 0 C0.33 0.66 0.66 1.32 1 2 C-0.92333011 6.06036357 -3.40069448 8.37347975 -7 11 C-6.68232368 5.59950264 -3.80003673 3.47662935 0 0 Z" fill="#345C93"/><path class="svgShape color2d558c-56 selectable" transform="translate(1885 98)" d="M0 0 C-1.5294997 3.44137432 -3.45369552 6.2222133 -6 9 C-6.99 9 -7.98 9 -9 9 C-7.45665977 5.21180126 -4.44676575 0 0 0 Z" fill="#2D558C"/><path class="svgShape color2c5288-57 selectable" transform="translate(1941 302)" d="M0 0 C0.99 0 1.98 0 3 0 C3.268125 0.9075 3.53625 1.815 3.8125 2.75 C4.90675495 5.74480303 6.10795583 7.50594178 8 10 C8 10.99 8 11.98 8 13 C7.34 13 6.68 13 6 13 C4.99491199 11.21118264 3.99607264 9.41885304 3 7.625 C2.1646875 6.12839844 2.1646875 6.12839844 1.3125 4.6015625 C0 2 0 2 0 0 Z" fill="#2C5288"/><path class="svgShape color29538a-58 selectable" transform="translate(2234 159)" d="M0 0 C4.13621084 3.3810038 7.81316569 6.66590534 11 11 C10.01 11.495 10.01 11.495 9 12 C7.62437146 10.71034824 6.29233607 9.37310707 5 8 C5 7.34 5 6.68 5 6 C4.34 6 3.68 6 3 6 C3 5.34 3 4.68 3 4 C2.01 3.67 1.02 3.34 0 3 C0 2.01 0 1.02 0 0 Z" fill="#29538A"/><path class="svgShape color2e558a-59 selectable" transform="translate(1981 6)" d="M0 0 C4.52615993 3.67832017 8.39424999 7.41086363 12 12 C8.83831632 10.56869725 6.37725517 8.82485862 3.75 6.5625 C3.04359375 5.96566406 2.3371875 5.36882813 1.609375 4.75390625 C0 3 0 3 0 0 Z" fill="#2E558A"/><path class="svgShape color537aa8-60 selectable" transform="translate(1915 154)" d="M0 0 C3.26008643 3.16952847 6.22237877 6.39937989 9 10 C5.51620548 10 5.17377657 9.60544626 2.8125 7.25 C2.28269531 6.73953125 1.75289062 6.2290625 1.20703125 5.703125 C0 4 0 4 0 0 Z" fill="#537AA8"/><path class="svgShape color254f87-61 selectable" transform="translate(2026 270)" d="M0 0 C4.13621084 3.3810038 7.81316569 6.66590534 11 11 C8.08728356 9.65319085 5.70671723 8.12551255 3.25 6.0625 C2.63640625 5.55847656 2.0228125 5.05445313 1.390625 4.53515625 C0 3 0 3 0 0 Z" fill="#254F87"/><path class="svgShape color265088-62 selectable" transform="translate(2067 95)" d="M0 0 C8.36628849 7.05024311 8.36628849 7.05024311 11 10 C11 10.66 11 11.32 11 12 C10.34 12 9.68 12 9 12 C9 11.34 9 10.68 9 10 C8.01 9.67 7.02 9.34 6 9 C4.39453125 7.44140625 4.39453125 7.44140625 2.8125 5.5625 C2.01779297 4.63630859 2.01779297 4.63630859 1.20703125 3.69140625 C0 2 0 2 0 0 Z" fill="#265088"/><path class="svgShape color31568c-63 selectable" transform="translate(2412 349)" d="M0 0 C1.1055189 0.93590504 2.20935453 1.87379858 3.3125 2.8125 C3.92738281 3.33457031 4.54226562 3.85664063 5.17578125 4.39453125 C8.51952278 7.3373102 8.51952278 7.3373102 10 9 C10 9.66 10 10.32 10 11 C6.59048278 9.86349426 5.62363724 8.74186875 3.3125 6.0625 C2.68988281 5.35222656 2.06726562 4.64195312 1.42578125 3.91015625 C0 2 0 2 0 0 Z" fill="#31568C"/><path class="svgShape color2a568c-64 selectable" transform="translate(2167 153)" d="M0 0 C3 1 3 1 4.16796875 2.77734375 C4.50441406 3.49019531 4.84085938 4.20304688 5.1875 4.9375 C5.70376953 6.00291016 5.70376953 6.00291016 6.23046875 7.08984375 C7 9 7 9 7 11 C6.34 11 5.68 11 5 11 C4.16151196 9.54462432 3.32936066 8.08559627 2.5 6.625 C1.80390625 5.40683594 1.80390625 5.40683594 1.09375 4.1640625 C0 2 0 2 0 0 Z" fill="#2A568C"/><path class="svgShape color31598c-65 selectable" transform="translate(1945 97)" d="M0 0 C0.66 0.66 1.32 1.32 2 2 C0.02 5.63 -1.96 9.26 -4 13 C-4.33 13 -4.66 13 -5 13 C-5 11.35 -5 9.7 -5 8 C-4.01 7.67 -3.02 7.34 -2 7 C-0.77030122 3.48809191 -0.77030122 3.48809191 0 0 Z" fill="#31598C"/><path class="svgShape color3f6597-66 selectable" transform="translate(1975 56)" d="M0 0 C0.99 0 1.98 0 3 0 C4.32 2.97 5.64 5.94 7 9 C6.01 9.495 6.01 9.495 5 10 C4.16121545 8.71186658 3.32913217 7.41936744 2.5 6.125 C2.0359375 5.40570313 1.571875 4.68640625 1.09375 3.9453125 C0 2 0 2 0 0 Z" fill="#3F6597"/><path class="svgShape color2d5287-67 selectable" transform="translate(2302 231)" d="M0 0 C7.48291572 6.15034169 7.48291572 6.15034169 10 10 C7.07909997 8.69063102 5.24380538 7.24380538 3 5 C2.01 4.67 1.02 4.34 0 4 C0 2.68 0 1.36 0 0 Z" fill="#2D5287"/><path class="svgShape color2c5488-68 selectable" transform="translate(1893 221)" d="M0 0 C0.66 0 1.32 0 2 0 C2 0.66 2 1.32 2 2 C2.66 2 3.32 2 4 2 C4.99 4.97 5.98 7.94 7 11 C4.42355713 8.42355713 3.31230641 6.96726521 1.8125 3.8125 C1.46832031 3.09707031 1.12414063 2.38164062 0.76953125 1.64453125 C0.51558594 1.10183594 0.26164062 0.55914062 0 0 Z" fill="#2C5488"/><path class="svgShape color27538c-69 selectable" transform="translate(1937 111)" d="M0 0 C0.83583327 2.37607949 1.1842383 3.54449627 0.22265625 5.921875 C-0.8515625 7.61458333 -1.92578125 9.30729167 -3 11 C-4 8 -4 8 -3.22265625 5.95703125 C-2.83980469 5.24933594 -2.45695312 4.54164062 -2.0625 3.8125 C-1.68222656 3.09707031 -1.30195312 2.38164063 -0.91015625 1.64453125 C-0.60980469 1.10183594 -0.30945312 0.55914062 0 0 Z" fill="#27538C"/><path class="svgShape color30598d-70 selectable" transform="translate(1903 76)" d="M0 0 C0.66 0.33 1.32 0.66 2 1 C1.04270084 2.12588014 0.08412105 3.2506715 -0.875 4.375 C-1.40867187 5.00148438 -1.94234375 5.62796875 -2.4921875 6.2734375 C-3.61432007 7.55836651 -4.79371975 8.79371975 -6 10 C-6.66 9.34 -7.32 8.68 -8 8 C-5.36 5.36 -2.72 2.72 0 0 Z" fill="#30598D"/><path class="svgShape color30558b-71 selectable" transform="translate(1922 55)" d="M0 0 C0 3.58912412 -0.66436554 4.10857029 -3 6.6875 C-3.556875 7.31011719 -4.11375 7.93273438 -4.6875 8.57421875 C-5.120625 9.04472656 -5.55375 9.51523438 -6 10 C-6.33 9.01 -6.66 8.02 -7 7 C-4.69 4.69 -2.38 2.38 0 0 Z" fill="#30558B"/><path class="svgShape color2c568a-72 selectable" transform="translate(1900 233)" d="M0 0 C0.66 0 1.32 0 2 0 C3.32421875 1.42578125 3.32421875 1.42578125 4.6875 3.3125 C5.14511719 3.92738281 5.60273437 4.54226562 6.07421875 5.17578125 C6.53248047 6.07876953 6.53248047 6.07876953 7 7 C6.67 7.99 6.34 8.98 6 10 C3.25722422 6.80009492 1.3697164 3.99500618 0 0 Z" fill="#2C568A"/><path class="svgShape color2c5693-73 selectable" transform="translate(1882 215)" d="M0 0 C0.66 0.66 1.32 1.32 2 2 C0.625 4.5 0.625 4.5 -1 7 C-1.66 7 -2.32 7 -3 7 C-2.25 2.25 -2.25 2.25 0 0 Z" fill="#2C5693"/><path class="svgShape color31578a-74 selectable" transform="translate(2032 149)" d="M0 0 C0.66 0 1.32 0 2 0 C6 6.75 6 6.75 6 9 C5.34 9 4.68 9 4 9 C0 2.25 0 2.25 0 0 Z" fill="#31578A"/><path class="svgShape color30568a-75 selectable" transform="translate(2189 111)" d="M0 0 C1.15224028 0.92961422 2.29659176 1.8690125 3.4375 2.8125 C4.07558594 3.33457031 4.71367187 3.85664062 5.37109375 4.39453125 C7 6 7 6 8 9 C6 9 6 9 3.4375 6.75 C1.11650925 4.13144633 0.61649556 3.2417969 0 0 Z" fill="#30568A"/><path class="svgShape color416595-76 selectable" transform="translate(1965 61)" d="M0 0 C0.66 0.33 1.32 0.66 2 1 C0.7508258 4.45925163 -0.67527795 7.14693203 -3 10 C-2.69201674 8.51988629 -2.378482 7.04092675 -2.0625 5.5625 C-1.88847656 4.73878906 -1.71445313 3.91507812 -1.53515625 3.06640625 C-1 1 -1 1 0 0 Z" fill="#416595"/><path class="svgShape color2e5690-77 selectable" transform="translate(1961 68)" d="M0 0 C0.6875 1.625 0.6875 1.625 1 4 C-0.4375 7.25 -0.4375 7.25 -2 10 C-2.33 10 -2.66 10 -3 10 C-2.25 3.375 -2.25 3.375 0 0 Z" fill="#2E5690"/><path class="svgShape color31578d-78 selectable" transform="translate(2069 210)" d="M0 0 C1.5 1.375 1.5 1.375 3 3 C3 3.66 3 4.32 3 5 C3.99 5 4.98 5 6 5 C5.67 6.32 5.34 7.64 5 9 C0.57142857 3.85714286 0.57142857 3.85714286 0 0 Z" fill="#31578D"/><path class="svgShape color2e5790-79 selectable" transform="translate(1928 48)" d="M0 0 C0.66 0 1.32 0 2 0 C1.75 1.875 1.75 1.875 1 4 C-1.0625 5.25 -1.0625 5.25 -3 6 C-2.42655063 3.13275314 -2.1385485 2.1385485 0 0 Z" fill="#2E5790"/></svg></g></svg>