<?xml version="1.0" standalone="no"?>
<!DOCTYPE svg PUBLIC "-//W3C//DTD SVG 20010904//EN"
 "http://www.w3.org/TR/2001/REC-SVG-20010904/DTD/svg10.dtd">
<svg version="1.0" xmlns="http://www.w3.org/2000/svg"
 width="512.000000pt" height="512.000000pt" viewBox="0 0 512.000000 512.000000"
 preserveAspectRatio="xMidYMid meet">

<g transform="translate(0.000000,512.000000) scale(0.100000,-0.100000)"
fill="#000000" stroke="none">
<path d="M2309 4205 c-619 -97 -1135 -534 -1328 -1125 -63 -194 -75 -273 -75
-515 0 -246 12 -330 78 -522 210 -614 745 -1054 1379 -1133 135 -17 401 -7
532 19 513 105 935 431 1160 896 88 183 147 392 161 575 l6 85 -203 1 c-225 0
-308 13 -492 74 -450 151 -817 517 -967 967 -60 182 -73 268 -74 491 l-1 202
-45 -1 c-25 -1 -84 -7 -131 -14z"/>
</g>
</svg>
