<?xml version="1.0" standalone="no"?>
<!DOCTYPE svg PUBLIC "-//W3C//DTD SVG 20010904//EN"
 "http://www.w3.org/TR/2001/REC-SVG-20010904/DTD/svg10.dtd">
<svg version="1.0" xmlns="http://www.w3.org/2000/svg"
 width="512.000000pt" height="512.000000pt" viewBox="0 0 512.000000 512.000000"
 preserveAspectRatio="xMidYMid meet">

<g transform="translate(0.000000,512.000000) scale(0.100000,-0.100000)"
fill="#000000" stroke="none">
<path d="M2495 4786 c-41 -18 -83 -69 -90 -109 -3 -18 -5 -154 -3 -304 3 -256
4 -273 24 -299 39 -53 71 -69 134 -69 63 0 95 16 134 69 20 26 21 40 21 326 0
286 -1 300 -21 326 -11 15 -32 37 -46 47 -33 25 -113 32 -153 13z"/>
<path d="M3975 4186 c-16 -8 -121 -105 -232 -217 -216 -219 -224 -231 -209
-314 14 -75 110 -136 193 -121 33 6 67 36 250 219 181 181 213 217 218 250 25
132 -101 237 -220 183z"/>
<path d="M1018 4159 c-67 -35 -96 -128 -64 -202 8 -18 101 -118 207 -224 166
-164 200 -192 232 -198 82 -16 179 45 193 120 15 82 6 96 -199 304 -106 106
-206 199 -224 207 -45 19 -101 17 -145 -7z"/>
<path d="M2375 3664 c-480 -86 -837 -446 -920 -928 -72 -419 121 -862 480
-1103 271 -182 606 -237 925 -152 110 29 301 127 396 203 411 326 540 902 306
1371 -80 161 -213 319 -352 417 -239 169 -555 242 -835 192z m375 -328 c208
-56 368 -170 480 -343 240 -366 133 -862 -237 -1103 -311 -204 -727 -161 -992
101 -161 159 -236 340 -236 569 0 174 36 297 125 433 120 185 307 310 525 353
85 16 257 12 335 -10z"/>
<path d="M415 2706 c-67 -29 -105 -106 -91 -181 9 -47 59 -102 104 -116 24 -6
136 -9 314 -7 261 3 278 4 304 24 53 39 69 71 69 134 0 63 -16 95 -69 134 -26
20 -42 21 -314 23 -223 2 -294 0 -317 -11z"/>
<path d="M4095 2706 c-67 -29 -105 -106 -91 -181 9 -47 59 -102 104 -116 24
-6 136 -9 314 -7 261 3 278 4 304 24 53 39 69 71 69 134 0 63 -16 95 -69 134
-26 20 -42 21 -314 23 -223 2 -294 0 -317 -11z"/>
<path d="M1365 1576 c-16 -7 -119 -103 -227 -212 -211 -214 -219 -226 -203
-311 9 -49 69 -109 118 -118 85 -16 97 -8 311 203 109 108 204 211 212 229 29
67 4 150 -57 194 -39 27 -113 35 -154 15z"/>
<path d="M3622 1573 c-70 -34 -107 -121 -83 -195 8 -23 74 -97 214 -235 218
-217 229 -224 314 -208 49 9 109 69 118 118 16 85 8 97 -203 311 -108 109
-211 204 -229 212 -43 18 -90 17 -131 -3z"/>
<path d="M2495 1106 c-41 -18 -83 -69 -90 -109 -3 -18 -5 -154 -3 -304 3 -256
4 -273 24 -299 39 -53 71 -69 134 -69 63 0 95 16 134 69 20 26 21 40 21 326 0
286 -1 300 -21 326 -11 15 -32 37 -46 47 -33 25 -113 32 -153 13z"/>
</g>
</svg>
